<svg xmlns="http://www.w3.org/2000/svg" width="48.009" height="34.793" viewBox="0 0 48.009 34.793">
  <g id="laptop" transform="translate(0 -70.472)">
    <g id="Group_2089" data-name="Group 2089" transform="translate(0 70.472)">
      <g id="Group_2088" data-name="Group 2088" transform="translate(0 0)">
        <path id="Path_1680" data-name="Path 1680" d="M47.3,98.848H44.782v-25.5A2.879,2.879,0,0,0,41.9,70.472H5.88A2.879,2.879,0,0,0,3,73.351v25.5H.713A.713.713,0,0,0,0,99.561v1.575a4.129,4.129,0,0,0,4.129,4.129H30.992a.713.713,0,1,0,0-1.426H4.129a2.7,2.7,0,0,1-2.7-2.7v-.862h16.8a2.545,2.545,0,0,0,2.541,2.5h6.465a2.545,2.545,0,0,0,2.541-2.5h16.8v.862a2.7,2.7,0,0,1-2.7,2.7h-9.56a.713.713,0,0,0,0,1.426h9.56a4.129,4.129,0,0,0,4.129-4.129V99.561A.713.713,0,0,0,47.3,98.848Zm-20.059,2.5H20.772a1.118,1.118,0,0,1-1.115-1.069h8.7A1.118,1.118,0,0,1,27.237,101.343Zm16.119-2.5H4.428v-25.5A1.454,1.454,0,0,1,5.881,71.9H41.9a1.454,1.454,0,0,1,1.453,1.453Z" transform="translate(0 -70.472)"/>
      </g>
    </g>
    <g id="Group_2091" data-name="Group 2091" transform="translate(5.664 73.134)">
      <g id="Group_2090" data-name="Group 2090" transform="translate(0 0)">
        <path id="Path_1681" data-name="Path 1681" d="M96.146,98.86H68.524a.713.713,0,0,0,0,1.426H95.433v21.626h-33.6V100.286H65.2a.713.713,0,1,0,0-1.426H61.116a.713.713,0,0,0-.713.713v23.052a.713.713,0,0,0,.713.713h35.03a.713.713,0,0,0,.713-.713V99.573A.713.713,0,0,0,96.146,98.86Z" transform="translate(-60.403 -98.86)"/>
      </g>
    </g>
  </g>
</svg>
