<svg xmlns="http://www.w3.org/2000/svg" width="30.087" height="48.006" viewBox="0 0 30.087 48.006">
  <g id="baby" transform="translate(-95.555)">
    <g id="Group_2077" data-name="Group 2077" transform="translate(106.062 44.87)">
      <g id="Group_2076" data-name="Group 2076" transform="translate(0)">
        <path id="Path_1674" data-name="Path 1674" d="M216.1,478.624a.938.938,0,0,0-1.219.522,1.1,1.1,0,0,1-1.016.671H210.44a1.1,1.1,0,0,1-1.016-.671.938.938,0,1,0-1.741.7,2.948,2.948,0,0,0,2.756,1.849h3.425a2.948,2.948,0,0,0,2.756-1.849A.938.938,0,0,0,216.1,478.624Z" transform="translate(-207.616 -478.556)"/>
      </g>
    </g>
    <g id="Group_2079" data-name="Group 2079" transform="translate(95.555)">
      <g id="Group_2078" data-name="Group 2078" transform="translate(0)">
        <path id="Path_1675" data-name="Path 1675" d="M125.557,40.108a4.626,4.626,0,0,0-2.22-3.121A4.659,4.659,0,0,0,125,32.674a11.821,11.821,0,0,0-6.556-8.891,10.755,10.755,0,0,0-4.914-17.707,4.056,4.056,0,0,0,.95-2.619A3.461,3.461,0,0,0,111.026,0h0A3.14,3.14,0,0,0,109,.7a2.559,2.559,0,0,0-.924,1.987.938.938,0,1,0,1.875,0,.694.694,0,0,1,.257-.553,1.27,1.27,0,0,1,.821-.263h0a1.584,1.584,0,0,1,1.582,1.582A2.212,2.212,0,0,1,110.4,5.669h0c-.023,0-.045,0-.068,0a10.755,10.755,0,0,0-7.579,18.111,11.821,11.821,0,0,0-6.556,8.891,4.659,4.659,0,0,0,1.666,4.312,4.628,4.628,0,0,0-1.321,6.854l2.008,2.566A4.18,4.18,0,0,0,101.84,48a4.136,4.136,0,0,0,2.072-.553,4.187,4.187,0,0,0,1.781-5.167l-1.218-3.022a4.62,4.62,0,0,0-.285-.582h6.877a.938.938,0,1,0,0-1.875h-8.66V34.825a.462.462,0,0,1,.462-.462h15.458a.462.462,0,0,1,.462.462v2.106a4.626,4.626,0,0,0-2.068,2.327L115.5,42.28a4.187,4.187,0,0,0,1.781,5.167,4.136,4.136,0,0,0,2.072.553,4.181,4.181,0,0,0,3.294-1.594l2.008-2.566A4.625,4.625,0,0,0,125.557,40.108ZM101.713,16.43a8.886,8.886,0,1,1,8.886,8.886A8.9,8.9,0,0,1,101.713,16.43Zm1.023,23.53,1.218,3.022a2.292,2.292,0,0,1-3.931,2.27l-2.008-2.566a2.753,2.753,0,1,1,4.721-2.726Zm15.6-9.346a.938.938,0,0,0-.938.938v.938H103.807v-.938a.938.938,0,1,0-1.875,0v1.135a2.34,2.34,0,0,0-1.4,2.14v1.324a2.794,2.794,0,0,1-2.485-3.2,9.9,9.9,0,0,1,6.255-7.8,10.737,10.737,0,0,0,12.591,0,9.9,9.9,0,0,1,6.255,7.8,2.794,2.794,0,0,1-2.485,3.2V34.825a2.34,2.34,0,0,0-1.393-2.137V31.551A.938.938,0,0,0,118.334,30.613Zm4.848,12.072-2.008,2.566a2.292,2.292,0,0,1-3.931-2.27l1.218-3.022a2.753,2.753,0,1,1,4.721,2.726Z" transform="translate(-95.555)"/>
      </g>
    </g>
    <g id="Group_2081" data-name="Group 2081" transform="translate(113.854 36.802)">
      <g id="Group_2080" data-name="Group 2080">
        <path id="Path_1676" data-name="Path 1676" d="M292.321,392.775a.937.937,0,1,0,.275.663A.945.945,0,0,0,292.321,392.775Z" transform="translate(-290.72 -392.5)"/>
      </g>
    </g>
    <g id="Group_2083" data-name="Group 2083" transform="translate(107.666 19.423)">
      <g id="Group_2082" data-name="Group 2082" transform="translate(0)">
        <path id="Path_1677" data-name="Path 1677" d="M230.243,207.36a.938.938,0,0,0-1.319.138,1.628,1.628,0,0,1-2.533,0,.938.938,0,0,0-1.457,1.181,3.5,3.5,0,0,0,5.446,0A.937.937,0,0,0,230.243,207.36Z" transform="translate(-224.726 -207.151)"/>
      </g>
    </g>
    <g id="Group_2085" data-name="Group 2085" transform="translate(104.869 15.129)">
      <g id="Group_2084" data-name="Group 2084" transform="translate(0)">
        <path id="Path_1678" data-name="Path 1678" d="M198.258,161.995a2.184,2.184,0,0,0-3.085,0,.938.938,0,0,0,1.326,1.326.307.307,0,0,1,.433,0,.938.938,0,1,0,1.326-1.326Z" transform="translate(-194.898 -161.357)"/>
      </g>
    </g>
    <g id="Group_2087" data-name="Group 2087" transform="translate(112.693 15.129)">
      <g id="Group_2086" data-name="Group 2086">
        <path id="Path_1679" data-name="Path 1679" d="M281.7,161.994a2.184,2.184,0,0,0-3.085,0,.938.938,0,1,0,1.326,1.326.307.307,0,0,1,.433,0,.938.938,0,0,0,1.326-1.326Z" transform="translate(-278.34 -161.357)"/>
      </g>
    </g>
  </g>
</svg>
