<svg xmlns="http://www.w3.org/2000/svg" width="47.988" height="34.534" viewBox="0 0 47.988 34.534">
  <g id="sports" transform="translate(-334 -114.983)">
    <g id="child" transform="translate(334 114.983)">
      <path id="Path_1670" data-name="Path 1670" d="M47.987,16.577a2.8,2.8,0,0,0-2.793-2.792H37.872A5.784,5.784,0,0,0,38.6,12.35,2.613,2.613,0,0,0,38.891,7.3,5.764,5.764,0,0,0,36.41,2.911,2.263,2.263,0,0,0,33.118.3a2.257,2.257,0,0,0-2.244,0A2.264,2.264,0,0,0,27.624,3.04a5.808,5.808,0,0,0-2.3,4.244,2.611,2.611,0,0,0,.3,5.076,5.8,5.8,0,0,0,.721,1.425H19.269a3.164,3.164,0,0,0-6.228,0h-1.6a3.164,3.164,0,0,0-6.228,0H2.792a2.792,2.792,0,0,0-.715,5.492l-.829,6.117a7.045,7.045,0,0,0,3.918,7.3v1.137a.708.708,0,1,0,1.415,0V33.2a7.042,7.042,0,0,0,1.658.2h2.2a.708.708,0,1,0,0-1.415H8.24a5.633,5.633,0,0,1-1.658-.251V28.589h6.409v5.237a.708.708,0,1,0,1.415,0V33.4H32.777a.708.708,0,0,0,0-1.415H14.406V19.37H44.494l.842,6.213a5.64,5.64,0,0,1-5.589,6.4H35.982a.708.708,0,0,0,0,1.415h3.765a7.055,7.055,0,0,0,6.991-8l-.829-6.117a2.8,2.8,0,0,0,2.078-2.7ZM28.9,2.215a.858.858,0,0,1,.767-.8.843.843,0,0,1,.626.2.886.886,0,0,0,1.153,0,.843.843,0,0,1,1.093,0,.887.887,0,0,0,1.153,0,.843.843,0,0,1,.626-.2.858.858,0,0,1,.766.8.842.842,0,0,1-.129.5.651.651,0,0,0-.067.09c-.012.014-.023.028-.036.041a.844.844,0,0,1-1.161.063.887.887,0,0,0-1.153,0,.842.842,0,0,1-1.092,0,.888.888,0,0,0-1.154,0,.832.832,0,0,1-.546.2.847.847,0,0,1-.846-.893ZM26.843,11.5a.709.709,0,0,0-.771-.541,1,1,0,0,1-.117.008,1.18,1.18,0,0,1-.012-2.352c.577.04.826-.463.782-.951A4.382,4.382,0,0,1,28.507,4.15a2.256,2.256,0,0,0,2.366.075,2.257,2.257,0,0,0,2.245,0A2.258,2.258,0,0,0,35.6,4.072a4.353,4.353,0,0,1,1.89,3.593c-.028.427.189.951.707.951a1.18,1.18,0,0,1,0,2.353c-.027,0-.053,0-.081-.005a.708.708,0,0,0-.745.543,4.383,4.383,0,0,1-1.379,2.279H28.222A4.386,4.386,0,0,1,26.843,11.5ZM16.155,12.6a1.751,1.751,0,0,1,1.656,1.19H14.5a1.751,1.751,0,0,1,1.656-1.19ZM12.99,15.2v2.754H6.582V15.2ZM8.331,12.6a1.751,1.751,0,0,1,1.656,1.19H6.676A1.751,1.751,0,0,1,8.331,12.6ZM1.415,16.578A1.379,1.379,0,0,1,2.793,15.2H5.167v2.755H2.793A1.379,1.379,0,0,1,1.415,16.578ZM3.993,30.052a5.641,5.641,0,0,1-1.342-4.468l.842-6.213H5.167v11.7a5.619,5.619,0,0,1-1.174-1.017Zm2.589-2.878v-5H12.99v5Zm6.409-6.416H6.582V19.37H12.99Zm32.2-2.8H14.406V15.2H45.195a1.377,1.377,0,1,1,0,2.754Zm0,0" transform="translate(0 0.001)"/>
      <path id="Path_1671" data-name="Path 1671" d="M308.02,80.381a1.053,1.053,0,1,1-1.053-1.053A1.053,1.053,0,0,1,308.02,80.381Zm0,0" transform="translate(-277.242 -71.893)"/>
      <path id="Path_1672" data-name="Path 1672" d="M360.524,80.381a1.053,1.053,0,1,1-1.053-1.053A1.053,1.053,0,0,1,360.524,80.381Zm0,0" transform="translate(-324.825 -71.893)"/>
      <path id="Path_1673" data-name="Path 1673" d="M314.831,105.289h-4.289a.945.945,0,0,0-.939,1.047,3.1,3.1,0,0,0,6.168,0,.944.944,0,0,0-.939-1.047Zm-2.145,2.394a1.684,1.684,0,0,1-1.533-.979h3.065A1.685,1.685,0,0,1,312.686,107.683Zm0,0" transform="translate(-280.58 -95.421)"/>
    </g>
  </g>
</svg>
