<svg xmlns="http://www.w3.org/2000/svg" width="46.461" height="48.009" viewBox="0 0 46.461 48.009">
  <g id="mobile" transform="translate(-533 -176)">
    <path id="Path_1649" data-name="Path 1649" d="M23.323,58.646A2.323,2.323,0,1,0,21,56.323,2.323,2.323,0,0,0,23.323,58.646Zm0-3.1a.774.774,0,1,1-.774.774A.774.774,0,0,1,23.323,55.549Z" transform="translate(526.713 163.04)"/>
    <path id="Path_1650" data-name="Path 1650" d="M11.195,10H5.774a.774.774,0,1,0,0,1.549h5.42a.774.774,0,0,0,0-1.549Z" transform="translate(530.323 172.969)"/>
    <path id="Path_1651" data-name="Path 1651" d="M16.549,10h-.774a.774.774,0,1,0,0,1.549h.774a.774.774,0,0,0,0-1.549Z" transform="translate(528.066 172.969)"/>
    <path id="Path_1652" data-name="Path 1652" d="M44.589,3.323H35.744A3.859,3.859,0,0,0,32.2,1H5.872A3.876,3.876,0,0,0,2,4.872V45.138a3.876,3.876,0,0,0,3.872,3.872H32.2a3.876,3.876,0,0,0,3.872-3.872V40.492h8.518a3.876,3.876,0,0,0,3.872-3.872V7.195a3.876,3.876,0,0,0-3.872-3.872ZM3.549,7.195h23.23V36.62a3.858,3.858,0,0,0,1.573,3.1H3.549ZM28.328,8.743H46.912V31.2H28.328ZM46.912,7.195H28.328a2.323,2.323,0,0,1,2.323-2.323H44.589A2.323,2.323,0,0,1,46.912,7.195ZM3.549,4.872A2.323,2.323,0,0,1,5.872,2.549H32.2a2.317,2.317,0,0,1,1.729.775H30.651a3.872,3.872,0,0,0-3.543,2.323H3.549ZM34.522,45.138A2.323,2.323,0,0,1,32.2,47.461H5.872a2.323,2.323,0,0,1-2.323-2.323V41.266H34.522Zm12.39-8.518a2.323,2.323,0,0,1-2.323,2.323H30.651a2.323,2.323,0,0,1-2.323-2.323V32.748H46.912Z" transform="translate(531 175)"/>
    <path id="Path_1653" data-name="Path 1653" d="M47.323,47.646A2.323,2.323,0,1,0,45,45.323,2.323,2.323,0,0,0,47.323,47.646Zm0-3.1a.774.774,0,1,1-.774.774A.774.774,0,0,1,47.323,44.549Z" transform="translate(521.297 165.522)"/>
  </g>
</svg>
