<svg xmlns="http://www.w3.org/2000/svg" width="44.516" height="47.997" viewBox="0 0 44.516 47.997">
  <g id="gift" transform="translate(-0.013 0.001)">
    <path id="Path_1702" data-name="Path 1702" d="M131.764,39.825a.8.8,0,0,0,.762-1.021,14.012,14.012,0,0,0-2.887-5.273,4.425,4.425,0,0,0-4.2-1.286.8.8,0,0,0-.458.459,1.992,1.992,0,0,0-.1.366,3.044,3.044,0,0,0-.04.448v.013a4.8,4.8,0,0,0,1.421,3.373,14.018,14.018,0,0,0,5.27,2.885.833.833,0,0,0,.229.035Zm-4.372-4.046a3.285,3.285,0,0,1-.728-1.109v-.008c-.035-.088-.065-.177-.091-.262-.014-.046-.023-.09-.035-.135s-.023-.08-.03-.119-.01-.056-.015-.084a3.03,3.03,0,0,1-.049-.359,3.286,3.286,0,0,1,2.076.954,10.8,10.8,0,0,1,1.885,3.014,10.8,10.8,0,0,1-3.017-1.891Zm0,0" transform="translate(-112.427 -28.944)"/>
    <path id="Path_1703" data-name="Path 1703" d="M43.734,11.429H31.463a11.127,11.127,0,0,0,1.489-1.219c2.844-2.852,2.937-7.177,1.12-8.993S27.933-.508,25.078,2.339a15.6,15.6,0,0,0-2.807,4.308,15.577,15.577,0,0,0-2.809-4.31C16.61-.507,12.286-.6,10.469,1.216S8.745,7.357,11.589,10.21a11.176,11.176,0,0,0,1.489,1.219H.808a.8.8,0,0,0-.795.795v7.949a.8.8,0,0,0,.795.795H2.4V44.021A3.98,3.98,0,0,0,6.372,48h31.8a3.979,3.979,0,0,0,3.975-3.975V20.968h1.59a.8.8,0,0,0,.795-.795V12.224a.8.8,0,0,0-.795-.795ZM26.2,3.462c2.285-2.278,5.617-2.251,6.746-1.122s1.157,4.46-1.121,6.746A13.312,13.312,0,0,1,28.3,11.429h-4.75v-.052c0-.181-.014-.365-.031-.55-.007-.061-.014-.121-.021-.184q-.027-.229-.068-.456c-.009-.053-.017-.107-.027-.159-.038-.2-.08-.393-.127-.581-.006-.027-.014-.051-.02-.08-.042-.165-.086-.318-.13-.477-.006-.022-.012-.045-.018-.067A15.156,15.156,0,0,1,26.2,3.462ZM25.45,19.378H19.091V13.019H25.45ZM12.714,9.087C10.436,6.8,10.463,3.471,11.593,2.341s4.46-1.157,6.744,1.119a15.27,15.27,0,0,1,3.18,5.6c.09.279.159.547.224.807.018.075.033.147.049.22.043.194.078.379.1.557.009.06.02.122.027.181a5.138,5.138,0,0,1,.041.6H16.24a13.323,13.323,0,0,1-3.526-2.339ZM1.6,13.019H17.5v6.359H1.6Zm2.385,31V20.968h15.1V46.406H6.372a2.385,2.385,0,0,1-2.385-2.385Zm16.694,2.385V20.968h3.18V46.406Zm19.873-2.385a2.385,2.385,0,0,1-2.385,2.385H25.45V20.968h15.1Zm2.385-24.643H27.04V13.019h15.9Zm0,0" transform="translate(0 0)"/>
    <path id="Path_1704" data-name="Path 1704" d="M246.3,39.879a.8.8,0,0,0,.226-.033,13.966,13.966,0,0,0,5.274-2.891,4.5,4.5,0,0,0,1.288-4.2.79.79,0,0,0-.457-.457,4.5,4.5,0,0,0-4.2,1.288,13.977,13.977,0,0,0-2.891,5.274.8.8,0,0,0,.762,1.021Zm3.252-5.171a3.3,3.3,0,0,1,2.078-.954,3.294,3.294,0,0,1-.954,2.079,10.746,10.746,0,0,1-3.021,1.9,10.739,10.739,0,0,1,1.9-3.02Zm0,0" transform="translate(-221.101 -28.996)"/>
  </g>
</svg>
