<svg xmlns="http://www.w3.org/2000/svg" width="48" height="48.03" viewBox="0 0 48 48.03">
  <g id="beauty" transform="translate(0.01 0.04)">
    <path id="Path_1661" data-name="Path 1661" d="M82.373,40.175c0,5.189,2.25,9.255,5.123,9.255s5.123-4.065,5.123-9.255S90.369,30.92,87.5,30.92,82.373,34.985,82.373,40.175Zm9.024,0c0,4.354-1.786,8.032-3.9,8.032s-3.9-3.678-3.9-8.032,1.786-8.032,3.9-8.032S91.4,35.82,91.4,40.175Z" transform="translate(-50.314 -18.787)"/>
    <path id="Path_1662" data-name="Path 1662" d="M47.334-.04h-21.9a.657.657,0,0,0-.656.656V3.879c0,.011,0,.023,0,.034a.081.081,0,0,0,0,.03l1.924,19.47h-.772v-.634a3.287,3.287,0,0,0-2.647-3.221,12.7,12.7,0,0,0-2.407-6.877l-1.624-2.239a.652.652,0,0,0-.521-.27.618.618,0,0,0-.529.255l-1.95,2.546a6.707,6.707,0,0,1-5.291,2.61,4.575,4.575,0,0,0-4.53,3.971,3.284,3.284,0,0,0-2.674,3.225v.634H2.881a.657.657,0,0,0-.656.656v4.32H.646a.655.655,0,0,0-.656.656v7.4A18.409,18.409,0,0,0,3.879,47.735a.652.652,0,0,0,.518.255H25.3a.652.652,0,0,0,.517-.255,18.343,18.343,0,0,0,2.449-4.189V45.8a2.159,2.159,0,0,0,2.156,2.156H42.279A2.157,2.157,0,0,0,44.435,45.8V39.417A.609.609,0,0,0,44.5,39.2L47.986,3.942v-.03c0-.011,0-.023,0-.034V.616a.657.657,0,0,0-.656-.656ZM5.075,22.779A1.975,1.975,0,0,1,7.051,20.81h5.561a.656.656,0,1,0,0-1.312H7.775a3.262,3.262,0,0,1,3.191-2.6,8.021,8.021,0,0,0,6.33-3.124l1.417-1.845,1.1,1.526A11.325,11.325,0,0,1,21.965,19.5H20.7a.656.656,0,0,0,0,1.313H22.52a.369.369,0,0,0,.064-.008.328.328,0,0,0,.06.008h.011a1.973,1.973,0,0,1,1.969,1.969v.634H5.075ZM3.537,27.211h7.984a.656.656,0,0,0,0-1.312H3.537V24.725H26.161V25.9H18.177a.656.656,0,1,0,0,1.313h7.984v1.177H3.537ZM28.4,36.444c0,.341-.015.69-.037,1.039,0,.049,0,.1-.007.15-.026.341-.06.683-.1,1.024a17.11,17.11,0,0,1-3.27,8.021H4.719A17.121,17.121,0,0,1,1.3,36.444V29.7H28.4ZM43.122,45.8a.845.845,0,0,1-.844.844H30.425a.845.845,0,0,1-.844-.844V42.369H43.122Zm0-4.748H29.581V39.792H43.122Zm.128-2.576H29.592c0-.045.007-.086.011-.131.026-.251.049-.5.064-.754,0-.075.011-.15.015-.225.015-.307.026-.619.026-.926v-7.4a.655.655,0,0,0-.656-.656H28.52L26.161,4.535H46.61ZM46.677,3.222H26.094V1.272H46.677Z" transform="translate(0)"/>
    <path id="Path_1663" data-name="Path 1663" d="M34.915,90.961a.611.611,0,0,0-.611-.611,5.391,5.391,0,0,0-2.561.639,4.5,4.5,0,0,0-1.965-2.343.61.61,0,0,0-.613,0A4.5,4.5,0,0,0,27.2,90.99a5.391,5.391,0,0,0-2.561-.639.611.611,0,0,0-.611.611v.082a5.411,5.411,0,0,0,1.18,3.373,3.4,3.4,0,0,0-1.1,1.152.612.612,0,0,0,0,.612,3.4,3.4,0,0,0,5.36.688,3.4,3.4,0,0,0,5.36-.689.611.611,0,0,0,0-.612,3.4,3.4,0,0,0-1.1-1.152,5.413,5.413,0,0,0,1.18-3.373Zm-2.905,1.29a4.16,4.16,0,0,1,1.643-.629,4.261,4.261,0,0,1-2.239,3.165c.066-.035.121-.244.15-.308a5.317,5.317,0,0,0,.237-.6,4.481,4.481,0,0,0,.206-1.633ZM29.471,89.9a3.256,3.256,0,0,1,0,5.235,3.255,3.255,0,0,1,0-5.235Zm-2.536,2.347a4.439,4.439,0,0,0,.2,1.622,4.338,4.338,0,0,0,.259.636,2.808,2.808,0,0,1,.13.276,4.261,4.261,0,0,1-2.235-3.163A4.163,4.163,0,0,1,26.935,92.251Zm.121,4.407a2.187,2.187,0,0,1-1.672-.784,2.174,2.174,0,0,1,.714-.559,5.513,5.513,0,0,0,2.1,1.021,2.177,2.177,0,0,1-1.138.322Zm4.831,0a2.174,2.174,0,0,1-1.14-.324,5.511,5.511,0,0,0,2.1-1.021,2.171,2.171,0,0,1,.714.559,2.186,2.186,0,0,1-1.673.786Z" transform="translate(-14.825 -54.36)"/>
    <path id="Path_1664" data-name="Path 1664" d="M45.326,52.06H44.1a.611.611,0,0,0,0,1.222h1.226a.611.611,0,1,0,0-1.222Z" transform="translate(-27.121 -32.525)"/>
  </g>
</svg>
