<svg xmlns="http://www.w3.org/2000/svg" width="48.036" height="39.82" viewBox="0 0 48.036 39.82">
  <g id="accessories" transform="translate(0 -43.789)">
    <g id="Group_2093" data-name="Group 2093" transform="translate(28.612 61.43)">
      <g id="Group_2092" data-name="Group 2092" transform="translate(0 0)">
        <path id="Path_1695" data-name="Path 1695" d="M307.935,231.815a2.969,2.969,0,1,0,2.969,2.969A2.972,2.972,0,0,0,307.935,231.815Zm0,4.051a1.082,1.082,0,1,1,1.082-1.082A1.084,1.084,0,0,1,307.935,235.866Z" transform="translate(-304.965 -231.815)"/>
      </g>
    </g>
    <g id="Group_2095" data-name="Group 2095" transform="translate(0 43.789)">
      <g id="Group_2094" data-name="Group 2094" transform="translate(0 0)">
        <path id="Path_1696" data-name="Path 1696" d="M47.932,57.637a19.359,19.359,0,0,0-6.817-9.924,19.043,19.043,0,0,0-11.639-3.924H19.216c-.338,0-.681.009-1.022.027a.926.926,0,0,0-.565.039A19.215,19.215,0,0,0,6.512,77.422a4.634,4.634,0,0,0,3.066,1.166H15.89a6.5,6.5,0,0,0,3.68-1.143L28.233,83.2a2.442,2.442,0,0,0,3.79-1.935l.418-10.291a6.865,6.865,0,0,0,5.815-5.475l.062-.318A.941.941,0,0,0,38.337,65c0-2.511,3.923-3.726,7.282-4a2.635,2.635,0,0,0,2.313-3.354ZM30.138,81.185a.554.554,0,0,1-.861.439l-8.287-5.5a6.49,6.49,0,0,0,1.194-2.381l.716-2.71h7.65Zm15.879-22.4a.744.744,0,0,1-.553.322c-5.587.462-8.946,2.623-9.013,5.788l-.046.234a4.972,4.972,0,0,1-4.871,4.011h-9.36a.944.944,0,0,0-.912.7l-.9,3.412a4.627,4.627,0,0,1-4.47,3.442H9.579a2.748,2.748,0,0,1-1.818-.694,17.329,17.329,0,0,1,9.269-30.192v2.452a.944.944,0,0,0,1.887,0V45.681c.1,0,.2,0,.3,0h3.29v2.59a.944.944,0,0,0,1.887,0v-2.59h3.589v2.59a.944.944,0,0,0,1.887,0V45.681A17.415,17.415,0,0,1,46.12,58.164.731.731,0,0,1,46.016,58.788Z" transform="translate(0 -43.789)"/>
      </g>
    </g>
    <g id="Group_2097" data-name="Group 2097" transform="translate(4.027 52.141)">
      <g id="Group_2096" data-name="Group 2096" transform="translate(0 0)">
        <path id="Path_1697" data-name="Path 1697" d="M48.186,133.063a.944.944,0,0,0-1.334.042,15.381,15.381,0,0,0-3.911,7.682.944.944,0,1,0,1.854.35,13.5,13.5,0,0,1,3.433-6.741A.944.944,0,0,0,48.186,133.063Z" transform="translate(-42.924 -132.807)"/>
      </g>
    </g>
    <g id="Group_2099" data-name="Group 2099" transform="translate(3.807 62.061)">
      <g id="Group_2098" data-name="Group 2098">
        <path id="Path_1698" data-name="Path 1698" d="M41.484,238.543a.944.944,0,0,0,0,1.887A.944.944,0,0,0,41.484,238.543Z" transform="translate(-40.573 -238.543)"/>
      </g>
    </g>
    <g id="Group_2101" data-name="Group 2101" transform="translate(40.746 53.688)">
      <g id="Group_2100" data-name="Group 2100">
        <path id="Path_1699" data-name="Path 1699" d="M435.2,149.3a.944.944,0,0,0,0,1.887A.944.944,0,0,0,435.2,149.3Z" transform="translate(-434.293 -149.303)"/>
      </g>
    </g>
    <g id="Group_2103" data-name="Group 2103" transform="translate(39.034 56.178)">
      <g id="Group_2102" data-name="Group 2102" transform="translate(0 0)">
        <path id="Path_1700" data-name="Path 1700" d="M416.961,175.839a.944.944,0,0,0,0,1.887A.944.944,0,0,0,416.961,175.839Z" transform="translate(-416.05 -175.839)"/>
      </g>
    </g>
    <g id="Group_2105" data-name="Group 2105" transform="translate(42.341 56.178)">
      <g id="Group_2104" data-name="Group 2104" transform="translate(0 0)">
        <path id="Path_1701" data-name="Path 1701" d="M452.2,175.839a.944.944,0,0,0,0,1.887A.944.944,0,0,0,452.2,175.839Z" transform="translate(-451.292 -175.839)"/>
      </g>
    </g>
  </g>
</svg>
