<svg xmlns="http://www.w3.org/2000/svg" width="48" height="48" viewBox="0 0 48 48">
  <g id="fashion" transform="translate(0 -0.002)">
    <g id="Group_2075" data-name="Group 2075" transform="translate(0 0.002)">
      <g id="Group_2074" data-name="Group 2074" transform="translate(0 0)">
        <path id="Path_1666" data-name="Path 1666" d="M47.773,17.261,40.031,9.519a.774.774,0,0,0-.409-.214L31.106,7.757a.774.774,0,0,0-.9.623.766.766,0,0,0-.012.138,4.6,4.6,0,0,1-.066.734L24.774,7.914V7.667a3.871,3.871,0,1,0-4.645-3.794h1.548A2.323,2.323,0,1,1,24,6.2a.774.774,0,0,0-.774.774v.944L17.872,9.252a4.6,4.6,0,0,1-.066-.734.774.774,0,0,0-.278-.595.756.756,0,0,0-.635-.166L8.378,9.305a.774.774,0,0,0-.409.214L.227,17.261a.774.774,0,0,0,0,1.095l6.194,6.194a.774.774,0,0,0,1.095,0l1.775-1.775v5.1H3.871a3.859,3.859,0,0,0-2.3,6.968,3.835,3.835,0,0,0,0,6.193A3.859,3.859,0,0,0,3.871,48H31.742a.774.774,0,0,0,.547-.227l6.194-6.194a.767.767,0,0,0,.22-.547h.007V22.774l1.775,1.775a.774.774,0,0,0,1.095,0l6.194-6.194A.774.774,0,0,0,47.773,17.261ZM24,9.316l5.63,1.407A6.317,6.317,0,0,1,24,13.841a6.317,6.317,0,0,1-5.63-3.118ZM1.549,31.744a2.323,2.323,0,0,1,2.323-2.323H20.9a2.323,2.323,0,0,1,0,4.645H3.871A2.323,2.323,0,0,1,1.549,31.744Zm0,6.194a2.323,2.323,0,0,1,2.323-2.323H20.9a2.323,2.323,0,1,1,0,4.645H3.871A2.323,2.323,0,0,1,1.549,37.937ZM20.9,46.453H3.871a2.323,2.323,0,0,1,0-4.645H20.9a2.323,2.323,0,0,1,0,4.645Zm11.613-1.095v-3.55h3.55Zm8.516-22.451L36.16,18.035,35.066,19.13l2.1,2.1V40.26H31.742a.774.774,0,0,0-.774.774v5.419H23.98a3.818,3.818,0,0,0-.689-5.356l-.085-.064a3.835,3.835,0,0,0,0-6.194,3.859,3.859,0,0,0-2.3-6.968H10.839V21.226l2.1-2.1L11.84,18.035,6.968,22.907l-5.1-5.1,7.023-7.023,7.432-1.351c.506,3.357,3.755,5.955,7.674,5.955s7.167-2.6,7.674-5.955L39.1,10.785l7.027,7.023Z" transform="translate(0 -0.002)"/>
        <rect id="Rectangle_478" data-name="Rectangle 478" width="17.456" height="0.97" transform="translate(3.525 31.165)"/>
        <rect id="Rectangle_479" data-name="Rectangle 479" width="17" height="1" transform="translate(3.635 37.637)"/>
        <rect id="Rectangle_480" data-name="Rectangle 480" width="17" height="1" transform="translate(3.635 43.637)"/>
      </g>
    </g>
  </g>
</svg>
