<svg xmlns="http://www.w3.org/2000/svg" width="48" height="48" viewBox="0 0 48 48">
  <g id="elecronics" transform="translate(-0.001 0)">
    <path id="Path_1643" data-name="Path 1643" d="M45.794,21.042H37.479V13.43h6.812A2.209,2.209,0,0,0,46.5,11.224V2.206A2.209,2.209,0,0,0,44.292,0H29.261a2.209,2.209,0,0,0-2.206,2.206V6.012H22.449v-2.3A3.714,3.714,0,0,0,18.74,0H3.71A3.713,3.713,0,0,0,0,3.709V45.794A2.209,2.209,0,0,0,2.207,48H20.243a2.209,2.209,0,0,0,2.206-2.206V35.224h3.1v10.57A2.209,2.209,0,0,0,27.758,48H45.795A2.209,2.209,0,0,0,48,45.794V23.248a2.209,2.209,0,0,0-2.206-2.206Zm.8,2.206v3.806h-6.26a2.206,2.206,0,1,0-4.111,0h-1.75v-2.3a.7.7,0,0,0-.7-.7H29.261a.7.7,0,0,0-.7.7v2.3h-1.6V23.248a.8.8,0,0,1,.8-.8H45.794a.8.8,0,0,1,.8.8Zm-9.115,3.006a.8.8,0,1,1,.8.8A.8.8,0,0,1,37.479,26.254Zm-7.515.8v-1.6h3.1v1.6Zm14.327-15.03h-2.3V5.915h3.1v5.309a.8.8,0,0,1-.8.8Zm.8-9.818v2.3h-3.1v-3.1h2.3a.8.8,0,0,1,.8.8Zm-16.63,0a.8.8,0,0,1,.8-.8H40.582V12.024H29.261a.8.8,0,0,1-.8-.8ZM1.407,31.466H2.958a.048.048,0,0,1,.048.048v5.261a.048.048,0,0,1-.048.048H1.407Zm0-12.776H2.958a.048.048,0,0,1,.048.048V24a.048.048,0,0,1-.048.048H1.407Zm19.636,27.1a.8.8,0,0,1-.8.8H2.207a.8.8,0,0,1-.8-.8V38.23H2.958a1.456,1.456,0,0,0,1.455-1.455V31.515A1.456,1.456,0,0,0,2.958,30.06H1.407v-1.6h15.83a.7.7,0,0,0,0-1.406H1.407v-1.6H2.958A1.456,1.456,0,0,0,4.413,24V18.74a1.456,1.456,0,0,0-1.455-1.455H1.407V3.709a2.305,2.305,0,0,1,2.3-2.3H18.74a2.305,2.305,0,0,1,2.3,2.3V27.054h-.8a.7.7,0,1,0,0,1.406h.8V45.794Zm1.406-11.976V7.418h4.606v3.806a2.208,2.208,0,0,0,2.206,2.206h6.812v7.612H27.758a2.208,2.208,0,0,0-2.206,2.206v10.57ZM45.794,46.594H27.758a.8.8,0,0,1-.8-.8V28.461H46.594V45.794a.8.8,0,0,1-.8.8Zm0,0" transform="translate(0 0)"/>
    <path id="Path_1644" data-name="Path 1644" d="M92.637,64.129H89.631a1.457,1.457,0,0,0-1.455,1.455v1.5a1.456,1.456,0,0,0,1.455,1.455h3.007a1.456,1.456,0,0,0,1.455-1.455v-1.5A1.457,1.457,0,0,0,92.637,64.129Zm.048,2.958a.048.048,0,0,1-.048.048H89.631a.048.048,0,0,1-.048-.048v-1.5a.048.048,0,0,1,.048-.048h3.007a.048.048,0,0,1,.048.048Zm0,0" transform="translate(-79.909 -58.116)"/>
    <path id="Path_1645" data-name="Path 1645" d="M441.59,257.922h2.255a.7.7,0,1,0,0-1.406H441.59a.7.7,0,1,0,0,1.406Zm0,0" transform="translate(-399.554 -232.468)"/>
    <path id="Path_1646" data-name="Path 1646" d="M327.36,328.66a6.716,6.716,0,1,0,6.716,6.716A6.724,6.724,0,0,0,327.36,328.66Zm0,12.026a5.31,5.31,0,1,1,5.31-5.31A5.315,5.315,0,0,1,327.36,340.686Zm0,0" transform="translate(-290.586 -297.85)"/>
    <path id="Path_1647" data-name="Path 1647" d="M359.156,363a.7.7,0,0,0-.505.856A2.3,2.3,0,1,1,357,362.205a.7.7,0,0,0,.351-1.362,3.706,3.706,0,1,0,2.665,2.665A.7.7,0,0,0,359.156,363Zm0,0" transform="translate(-319.644 -326.91)"/>
    <path id="Path_1648" data-name="Path 1648" d="M321.348,39.481h7.516a.7.7,0,0,0,.7-.7V32.765a.7.7,0,0,0-.7-.7h-1.5a.7.7,0,0,0,0,1.406h.8v4.606h-6.11V33.469h2.3a.7.7,0,1,0,0-1.406h-3.007a.7.7,0,0,0-.7.7v6.013A.7.7,0,0,0,321.348,39.481Zm0,0" transform="translate(-290.585 -29.056)"/>
  </g>
</svg>
