<svg xmlns="http://www.w3.org/2000/svg" width="35.579" height="48.009" viewBox="0 0 35.579 48.009">
  <path id="stationery" d="M1.307,23.7V42.9a5.089,5.089,0,0,0,5.034,5.093c.013,0,.036.008.049.008s.031.008.04.008H22.517a5.141,5.141,0,0,0,5.134-5.1v-.341h4.307a4.043,4.043,0,0,0,4.053-4.054V29.26a4.079,4.079,0,0,0-4.053-4.1H27.651V23.7a1.684,1.684,0,0,0,.875-1.462V17.857a1.628,1.628,0,0,0-1.607-1.637H25.026V4.817a.733.733,0,0,0-.754-.748H15.23a.772.772,0,0,0-.8.748v11.4H12.849L12.828,5.935a.761.761,0,0,0-.144-.443L9.021.326a.778.778,0,0,0-1.269,0L4.089,5.5a.746.746,0,0,0-.143.437L3.924,16.22h-1.9A1.617,1.617,0,0,0,.432,17.857v4.379A1.683,1.683,0,0,0,1.307,23.7ZM22.516,46.453H6.372a3.548,3.548,0,0,1-3.509-3.547V23.9H26.1V42.906a3.589,3.589,0,0,1-3.579,3.547ZM27.651,29.83H30.76a.6.6,0,0,1,.586.628v6.854a.564.564,0,0,1-.586.586H27.651Zm4.307-3.111a2.522,2.522,0,0,1,2.5,2.541v9.251a2.486,2.486,0,0,1-2.5,2.5H27.651V39.453H30.76A2.12,2.12,0,0,0,32.9,37.312V30.458a2.156,2.156,0,0,0-2.141-2.184H27.651V26.719ZM23.471,6.791h-.91a.778.778,0,0,0,0,1.555h.91v.778H21.624a.778.778,0,1,0,0,1.555h1.847v.778h-.91a.778.778,0,0,0,0,1.555h.91v.875H21.624a.778.778,0,1,0,0,1.555h1.847v.778H18.9V5.624h4.569ZM15.986,5.624h1.361v10.6H15.986ZM8.977,6.693,9,16.22H7.774L7.8,6.693Zm1.579,9.527-.023-9.527h.742l.02,9.527ZM8.388,2.092l2.158,3.046H6.228ZM5.5,6.693h.743L6.219,16.22H5.48ZM26.971,22.186a.061.061,0,0,1-.061.061H2.048a.061.061,0,0,1-.061-.061v-4.35a.061.061,0,0,1,.061-.061H26.91a.061.061,0,0,1,.061.061Zm0,0" transform="translate(-0.432 0.001)"/>
</svg>
