<svg xmlns="http://www.w3.org/2000/svg" width="48" height="26.832" viewBox="0 0 48 26.832">
  <g id="furniture" transform="translate(0 -112.894)">
    <g id="Group_2073" data-name="Group 2073" transform="translate(0 112.894)">
      <path id="Path_1665" data-name="Path 1665" d="M45.621,120.238h-.954v-3.544a3.8,3.8,0,0,0-3.8-3.8H27.1a3.8,3.8,0,0,0-3.1,1.6,3.8,3.8,0,0,0-3.1-1.6H12.252a.7.7,0,0,0,0,1.406H20.9a2.4,2.4,0,0,1,2.394,2.394v7.032l-.045-.041a4.6,4.6,0,0,0-3.1-1.225H8.436a2.411,2.411,0,0,0-1.594-2.089,2.337,2.337,0,0,0-.78-.132H4.739v-3.544A2.4,2.4,0,0,1,7.132,114.3H9.439a.7.7,0,1,0,0-1.406H7.132a3.8,3.8,0,0,0-3.8,3.8v3.544H2.379A2.382,2.382,0,0,0,0,122.617v7.342a4.96,4.96,0,0,0,4.954,4.954h.353l-.77,2.072a2.053,2.053,0,0,0,1.905,2.741H7.574a2.044,2.044,0,0,0,1.621-.807l3.031-4.007H35.774l3.031,4.007a2.044,2.044,0,0,0,1.621.806h1.131a2.053,2.053,0,0,0,1.905-2.741l-.771-2.072h.353A4.96,4.96,0,0,0,48,129.959v-7.342A2.382,2.382,0,0,0,45.621,120.238ZM24.7,116.694A2.4,2.4,0,0,1,27.1,114.3H40.868a2.4,2.4,0,0,1,2.394,2.394v3.544H41.937a2.435,2.435,0,0,0-2.194,1.461,2.364,2.364,0,0,0-.179.761H27.852a4.612,4.612,0,0,0-3.148,1.266v-7.032ZM8.442,123.866H20.148a3.152,3.152,0,0,1,3.148,3.149v1H8.442Zm-.368,14.206a.63.63,0,0,1-.5.249H6.442a.632.632,0,0,1-.587-.845l.953-2.562h3.655Zm33.484.249H40.426a.63.63,0,0,1-.5-.249l-2.389-3.159h3.655l.953,2.562A.632.632,0,0,1,41.557,138.32Zm1.488-4.814H4.954a3.552,3.552,0,0,1-3.548-3.548v-7.342a.974.974,0,0,1,.973-.973H6.063a.974.974,0,0,1,.973.973v6.1a.7.7,0,0,0,.7.7H33.564a.7.7,0,0,0,0-1.406H24.7v-1a3.152,3.152,0,0,1,3.148-3.148H39.558v4.148H36.377a.7.7,0,0,0,0,1.406h3.885a.7.7,0,0,0,.7-.7v-6.1a.974.974,0,0,1,.973-.973h3.684a.974.974,0,0,1,.973.973v7.342h0A3.552,3.552,0,0,1,43.046,133.506Z" transform="translate(0 -112.894)"/>
    </g>
  </g>
</svg>
