<?xml version="1.0" encoding="utf-8"?>
<!-- Generator: Adobe Illustrator 16.0.0, SVG Export Plug-In . SVG Version: 6.00 Build 0)  -->
<!DOCTYPE svg PUBLIC "-//W3C//DTD SVG 1.1//EN" "http://www.w3.org/Graphics/SVG/1.1/DTD/svg11.dtd">
<svg version="1.1" id="Layer_1" xmlns="http://www.w3.org/2000/svg" xmlns:xlink="http://www.w3.org/1999/xlink" x="0px" y="0px"
	 width="24px" height="24px" viewBox="0 0 24 24" enable-background="new 0 0 24 24" xml:space="preserve">
<path fill="#E3BD00" d="M15,22.75H9c-5.43,0-7.75-2.32-7.75-7.75V9c0-5.43,2.32-7.75,7.75-7.75h6c5.43,0,7.75,2.32,7.75,7.75v6
	C22.75,20.43,20.43,22.75,15,22.75z M9,2.75C4.39,2.75,2.75,4.39,2.75,9v6c0,4.609,1.64,6.25,6.25,6.25h6
	c4.609,0,6.25-1.641,6.25-6.25V9c0-4.61-1.641-6.25-6.25-6.25H9z"/>
<path fill="#E3BD00" d="M13.76,17.75h-3.53c-1.1,0-1.97-0.54-2.46-1.52l-0.89-1.791c-0.21-0.43-0.64-0.689-1.12-0.689H1.99
	c-0.41,0-0.75-0.34-0.75-0.75S1.59,12.25,2,12.25h3.76c1.05,0,1.99,0.58,2.46,1.52l0.89,1.791c0.23,0.459,0.6,0.689,1.12,0.689h3.53
	c0.48,0,0.91-0.26,1.121-0.689l0.889-1.791c0.471-0.939,1.41-1.52,2.461-1.52h3.74c0.41,0,0.75,0.34,0.75,0.75s-0.34,0.75-0.75,0.75
	h-3.74c-0.48,0-0.91,0.26-1.12,0.689l-0.89,1.791C15.75,17.17,14.811,17.75,13.76,17.75z"/>
<path fill="#E3BD00" d="M13.67,7.75h-3.33C9.92,7.75,9.58,7.41,9.58,7s0.34-0.75,0.75-0.75h3.33c0.41,0,0.75,0.34,0.75,0.75
	S14.08,7.75,13.67,7.75z"/>
<path fill="#E3BD00" d="M14.5,10.75h-5c-0.41,0-0.75-0.34-0.75-0.75S9.09,9.25,9.5,9.25h5c0.41,0,0.75,0.34,0.75,0.75
	S14.91,10.75,14.5,10.75z"/>
</svg>
