<svg id="great-selection" xmlns="http://www.w3.org/2000/svg" width="36" height="33.187" viewBox="0 0 36 33.187">
  <g id="XMLID_492_" transform="translate(0 0)">
    <path id="XMLID_1247_" d="M32.484,20H21.164a.7.7,0,0,0,0,1.406h11.32a2.112,2.112,0,0,1,2.109,2.109V40.17H29.218l-5.229-3.02a.7.7,0,0,0,.62-.7V32.516a.7.7,0,0,0-.7-.7H19.969a.7.7,0,0,0-.7.7v3.937a.7.7,0,0,0,.7.7h.7V40.17H1.406V23.516a2.112,2.112,0,0,1,2.109-2.109H14.836a.7.7,0,0,0,0-1.406H3.516A3.52,3.52,0,0,0,0,23.516V43.2a3.52,3.52,0,0,0,3.516,3.516H13.922v5.062H12.211a.7.7,0,1,0,0,1.406H23.789a.7.7,0,1,0,0-1.406H22.078v-3l1.754-1.729,2.834,4.909a.7.7,0,0,0,.96.257L31.9,49.749a.7.7,0,0,0,.257-.96l-1.195-2.069h1.522A3.52,3.52,0,0,0,36,43.2V23.516A3.52,3.52,0,0,0,32.484,20ZM20.672,33.219H23.2V35.75H20.672ZM1.406,43.2V41.577H20.672v3.736H3.516A2.112,2.112,0,0,1,1.406,43.2Zm13.922,8.578V46.719h5.344v5.062Zm12.2-1.135L24.6,45.558a.7.7,0,0,0-1.1-.149L22.079,46.8V37.671l7.908,4.567-1.914.527a.7.7,0,0,0-.422,1.029l2.937,5.088Zm4.951-5.334H30.15l-.827-1.433,2.657-.732a.7.7,0,0,0,.165-1.287l-.491-.283h2.94V43.2A2.112,2.112,0,0,1,32.484,45.312Z" transform="translate(0 -20)"/>
    <path id="XMLID_1269_" d="M52.672,76a2.672,2.672,0,1,0,2.672,2.672A2.675,2.675,0,0,0,52.672,76Zm0,3.937a1.266,1.266,0,1,1,1.266-1.266A1.267,1.267,0,0,1,52.672,79.937Z" transform="translate(-46.484 -72.063)"/>
    <path id="XMLID_1272_" d="M162,78.672A2.672,2.672,0,1,0,164.672,76,2.675,2.675,0,0,0,162,78.672Zm3.938,0a1.266,1.266,0,1,1-1.266-1.266A1.267,1.267,0,0,1,165.937,78.672Z" transform="translate(-150.609 -72.063)"/>
    <path id="XMLID_1276_" d="M276.672,81.344A2.672,2.672,0,1,0,274,78.672,2.675,2.675,0,0,0,276.672,81.344Zm0-3.937a1.266,1.266,0,1,1-1.266,1.266A1.267,1.267,0,0,1,276.672,77.406Z" transform="translate(-254.734 -72.063)"/>
    <path id="XMLID_1279_" d="M388.672,81.344A2.672,2.672,0,1,0,386,78.672,2.675,2.675,0,0,0,388.672,81.344Zm0-3.937a1.266,1.266,0,1,1-1.266,1.266A1.267,1.267,0,0,1,388.672,77.406Z" transform="translate(-358.859 -72.063)"/>
    <path id="XMLID_1282_" d="M52.672,188a2.672,2.672,0,1,0,2.672,2.672A2.675,2.675,0,0,0,52.672,188Zm0,3.937a1.266,1.266,0,1,1,1.266-1.266A1.267,1.267,0,0,1,52.672,191.937Z" transform="translate(-46.484 -176.188)"/>
    <path id="XMLID_1286_" d="M162.7,188a.7.7,0,0,0-.7.7v3.938a.7.7,0,0,0,.7.7h3.938a.7.7,0,0,0,.7-.7V188.7a.7.7,0,0,0-.7-.7Zm3.234,3.937h-2.531v-2.531h2.531Z" transform="translate(-150.609 -176.188)"/>
    <path id="XMLID_1293_" d="M388.672,193.344A2.672,2.672,0,1,0,386,190.672,2.675,2.675,0,0,0,388.672,193.344Zm0-3.937a1.266,1.266,0,1,1-1.266,1.266A1.267,1.267,0,0,1,388.672,189.406Z" transform="translate(-358.859 -176.188)"/>
    <path id="XMLID_1295_" d="M246.7,21.555a.7.7,0,1,0-.5-.206A.708.708,0,0,0,246.7,21.555Z" transform="translate(-228.703 -20.139)"/>
  </g>
</svg>
