<svg id="assured-quality" xmlns="http://www.w3.org/2000/svg" width="35.983" height="36.002" viewBox="0 0 35.983 36.002">
  <path id="Path_431" data-name="Path 431" d="M179.244,192.827l-5.409,5.109-2.6-2.671a.748.748,0,1,0-1.073,1.043l3.114,3.2a.762.762,0,0,0,1.058.022l5.95-5.612a.747.747,0,0,0,.03-1.058A.766.766,0,0,0,179.244,192.827Zm0,0" transform="translate(-157.235 -178.17)"/>
  <path id="Path_432" data-name="Path 432" d="M102.084,90.551a11.209,11.209,0,1,0,11.209,11.209A11.22,11.22,0,0,0,102.084,90.551Zm0,20.917a9.708,9.708,0,1,1,9.709-9.709A9.72,9.72,0,0,1,102.084,111.468Zm0,0" transform="translate(-84.089 -83.757)"/>
  <path id="Path_433" data-name="Path 433" d="M33.845,13.875l.248-4.449a.749.749,0,0,0-.413-.713l-3.961-2-2-3.961A.761.761,0,0,0,27,2.336l-4.457.24L18.832.123a.75.75,0,0,0-.825,0L14.293,2.576,9.845,2.329a.747.747,0,0,0-.713.413l-2,3.961-3.961,2a.76.76,0,0,0-.413.713L3,13.868.549,17.581a.75.75,0,0,0,0,.825l2.446,3.721-.248,4.449a.748.748,0,0,0,.413.713l3.961,2,2,3.961a.76.76,0,0,0,.713.413l4.449-.248L18,35.873a.731.731,0,0,0,.825,0l3.714-2.453,4.449.248a.749.749,0,0,0,.713-.413l2-3.961,3.961-2a.761.761,0,0,0,.413-.713l-.248-4.449,2.453-3.714a.75.75,0,0,0,0-.825Zm-1.4,7.638a.7.7,0,0,0-.12.458l.232,4.209L28.819,28.07a.74.74,0,0,0-.33.33L26.6,32.144l-4.209-.232a.82.82,0,0,0-.458.12L18.42,34.35l-3.511-2.318A.743.743,0,0,0,14.5,31.9h-.038l-4.209.233L8.359,28.393a.739.739,0,0,0-.33-.33L4.277,26.179,4.51,21.97a.82.82,0,0,0-.12-.458L2.072,18,4.39,14.49a.7.7,0,0,0,.12-.457L4.277,9.824,8.021,7.933a.74.74,0,0,0,.33-.33l1.891-3.744,4.209.233a.824.824,0,0,0,.458-.12L18.42,1.653l3.511,2.318a.7.7,0,0,0,.458.12L26.6,3.859,28.489,7.6a.74.74,0,0,0,.33.33l3.744,1.891-.232,4.209a.822.822,0,0,0,.12.457L34.768,18Zm0,0" transform="translate(-0.425 0.001)"/>
</svg>
