<svg id="easy-exchange" xmlns="http://www.w3.org/2000/svg" width="36.003" height="36.003" viewBox="0 0 36.003 36.003">
  <path id="Path_453" data-name="Path 453" d="M35.64,8.287,21.618.587a.7.7,0,0,0-.677,0l-5.285,2.9a.705.705,0,0,0-.3.166L6.919,8.287a.7.7,0,0,0-.365.616v9.312a9.368,9.368,0,0,0-5.6,13.038.7.7,0,0,0,1.264-.617,7.95,7.95,0,1,1,3.654,3.654.7.7,0,0,0-.617,1.264,9.374,9.374,0,0,0,12.66-4.6l3.03,1.664a.7.7,0,0,0,.677,0l14.022-7.7A.7.7,0,0,0,36,24.3V19.415a.7.7,0,1,0-1.406,0v4.471L21.985,30.812V17.018l4.163-2.286v3.624a.7.7,0,0,0,1.042.616l3-1.654a.7.7,0,0,0,.364-.616V12.31l4.04-2.218v3.7a.7.7,0,0,0,1.406,0V8.9a.7.7,0,0,0-.365-.616ZM21.279,2.006,33.84,8.9l-3.962,2.176-12.561-6.9Zm0,13.795L8.718,8.9l4.108-2.256,12.561,6.9Zm5.569-3.058-12.561-6.9,1.569-.862,12.561,6.9ZM15.975,20.53a9.3,9.3,0,0,0-6.616-2.741,9.484,9.484,0,0,0-1.4.1v-7.8L20.579,17.02V30.815l-2.19-1.2a9.4,9.4,0,0,0,.327-2.467,9.3,9.3,0,0,0-2.74-6.616Zm13.177-4.244-1.6.88V13.96l1.6-.878Zm0,0" transform="translate(-0.001 -0.501)"/>
  <path id="Path_454" data-name="Path 454" d="M492.7,219.441a.7.7,0,1,0,.5.206A.709.709,0,0,0,492.7,219.441Zm0,0" transform="translate(-457.403 -204.045)"/>
  <path id="Path_455" data-name="Path 455" d="M67.851,326.2a.7.7,0,0,0,.5-1.2l-.487-.487h4.156a1.828,1.828,0,0,1,0,3.657H69.554a.7.7,0,1,0,0,1.406h2.463a3.234,3.234,0,1,0,0-6.469H67.861l.487-.487a.7.7,0,0,0-.994-.995l-1.688,1.688a.7.7,0,0,0,0,.995L67.353,326A.7.7,0,0,0,67.851,326.2Zm0,0" transform="translate(-60.857 -298.854)"/>
  <path id="Path_456" data-name="Path 456" d="M36.772,457.839a.7.7,0,0,1-.537-.25v0a.7.7,0,1,1,.539.252Zm0,0" transform="translate(-33.532 -424.371)"/>
</svg>
