<svg xmlns="http://www.w3.org/2000/svg" xmlns:xlink="http://www.w3.org/1999/xlink" width="36" height="36" viewBox="0 0 36 36">
  <defs>
    <clipPath id="clip-express-delivery">
      <rect width="36" height="36"/>
    </clipPath>
  </defs>
  <g id="express-delivery" clip-path="url(#clip-express-delivery)">
    <g id="speedy-delivery" transform="translate(0 4.981)">
      <g id="Group_552" data-name="Group 552">
        <g id="Group_551" data-name="Group 551">
          <path id="Path_446" data-name="Path 446" d="M29.145,77.281H26.878l.683-7.841V69.4h0a.527.527,0,0,0-.318-.483h0l-.036-.013h-.014l-.03-.008-.021,0h-10.9a.528.528,0,0,0,0,1.055H26.46l-1.049,12.05h0l-.265,3.04H6.822l.306-3.164h3.489a.528.528,0,0,0,0-1.055H7.23l.647-6.679H13.43a.528.528,0,1,0,0-1.055H7.98l.3-3.14h5.85a.528.528,0,0,0,0-1.055H7.8a.527.527,0,0,0-.515.416v0a.093.093,0,0,1-.006.04c-.006.013,0,.008,0,.013h0l-.36,3.719H.527a.528.528,0,0,0,0,1.055H6.818L6.171,80.8H4.289a.528.528,0,0,0,0,1.055h1.78l-.352,3.637h0l-.545,5.624h0v.051h0v.053a.116.116,0,0,0,.006.04c.006.013,0,.008,0,.012a.051.051,0,0,0,.008.03c.008.01,0,.014.005.021v.006a.527.527,0,0,0,.125.206h0l.018.016a.524.524,0,0,0,.122.084l.028.013h.009l.04.015h0l.047.012H5.6l.046.007h2.4a4.014,4.014,0,0,0,7.959,0h8.459a4.014,4.014,0,0,0,7.959,0h2.41l.041-.006h.017l.031-.008.02-.007.026-.01.021-.009.023-.011.021-.011.022-.013.02-.013.021-.016.017-.014.021-.019.014-.014.021-.023.011-.013.022-.029.007-.01a.326.326,0,0,0,.024-.04h0c.008-.015.015-.03.022-.045v-.013c0-.011.009-.022.012-.033s0-.015.006-.022,0-.017.007-.026,0-.016,0-.024v-.021c.022-.179.435-3.492.62-5.635v-.006c.053-.618.087-1.138.087-1.456a6.863,6.863,0,0,0-6.84-6.854Zm-2.358,1.055h2.157L28.668,81.5H26.511ZM12.024,94.128a2.96,2.96,0,1,1,2.96-2.96,2.96,2.96,0,0,1-2.96,2.96Zm16.417,0a2.96,2.96,0,1,1,2.961-2.96,2.96,2.96,0,0,1-2.961,2.96ZM34.3,90.64H32.421a4.014,4.014,0,0,0-7.959,0H16a4.014,4.014,0,0,0-7.959,0H6.277l.443-4.571H25.692l.041-.006h.017l.031-.008.021-.007.026-.01.022-.01.023-.011L25.9,86l.021-.013.02-.014.02-.015.018-.015.02-.018.016-.016.018-.02.014-.017.017-.023.012-.017.015-.024.01-.019.012-.025.009-.021a.084.084,0,0,1,.009-.025l.008-.023.006-.025a.039.039,0,0,1,.006-.025c.006-.008,0-.017,0-.025v-.026h0l.264-3.034h2.725a3.777,3.777,0,0,1,3.116,1.724,4.327,4.327,0,0,0,2.555,1.746C34.662,87.646,34.414,89.728,34.3,90.64Zm.6-5.673a3.451,3.451,0,0,1-1.85-1.382,4.952,4.952,0,0,0-3.332-2.054L30,78.4a5.809,5.809,0,0,1,4.949,5.738c0,.2-.018.483-.043.829Z" transform="translate(0 -68.867)"/>
        </g>
      </g>
      <g id="Group_554" data-name="Group 554" transform="translate(10.09 20.367)">
        <g id="Group_553" data-name="Group 553">
          <path id="Path_447" data-name="Path 447" d="M145.442,358.524a1.934,1.934,0,1,0,1.934,1.934,1.934,1.934,0,0,0-1.934-1.934Zm0,2.813a.879.879,0,1,1,.879-.879.879.879,0,0,1-.879.879Z" transform="translate(-143.508 -358.524)"/>
        </g>
      </g>
      <g id="Group_556" data-name="Group 556" transform="translate(26.508 20.367)">
        <g id="Group_555" data-name="Group 555">
          <path id="Path_448" data-name="Path 448" d="M378.93,358.524a1.934,1.934,0,1,0,1.934,1.934,1.934,1.934,0,0,0-1.934-1.934Zm0,2.813a.879.879,0,1,1,.879-.879.879.879,0,0,1-.879.879Z" transform="translate(-376.996 -358.524)"/>
        </g>
      </g>
      <g id="Group_558" data-name="Group 558" transform="translate(1.887 8.414)">
        <g id="Group_557" data-name="Group 557">
          <path id="Path_449" data-name="Path 449" d="M29.939,188.527H27.361a.527.527,0,0,0,0,1.055h2.578a.527.527,0,1,0,0-1.055Z" transform="translate(-26.834 -188.527)"/>
        </g>
      </g>
    </g>
  </g>
</svg>
