<svg xmlns="http://www.w3.org/2000/svg" xmlns:xlink="http://www.w3.org/1999/xlink" width="36" height="36" viewBox="0 0 36 36">
  <defs>
    <clipPath id="clip-secure-payments-new">
      <rect width="36" height="36"/>
    </clipPath>
  </defs>
  <g id="secure-payments-new" clip-path="url(#clip-secure-payments-new)">
    <g id="secure-payments" transform="translate(0 2.002)">
      <g id="Group_542" data-name="Group 542">
        <g id="Group_541" data-name="Group 541">
          <path id="Path_441" data-name="Path 441" d="M33.9,26H2.1A2.1,2.1,0,0,0,0,28.1V47.808a2.1,2.1,0,0,0,2.1,2.1H16.908A11.753,11.753,0,0,0,20.2,55.651c1.811,1.759,3.887,2.7,4.689,2.7s2.878-.937,4.689-2.7a11.753,11.753,0,0,0,3.288-5.742H33.9a2.1,2.1,0,0,0,2.1-2.1V28.1A2.1,2.1,0,0,0,33.9,26ZM31.783,47.027A10.38,10.38,0,0,1,28.638,54.6a8.806,8.806,0,0,1-3.753,2.342A8.8,8.8,0,0,1,21.132,54.6a10.38,10.38,0,0,1-3.145-7.572V43.564a31.472,31.472,0,0,0,6.9-2.918,32.562,32.562,0,0,0,6.9,2.917Zm2.813.781a.7.7,0,0,1-.694.694h-.8a12.975,12.975,0,0,0,.083-1.475v-4a.7.7,0,0,0-.519-.679,31.02,31.02,0,0,1-7.43-3.125.7.7,0,0,0-.71,0,30.169,30.169,0,0,1-7.43,3.124.7.7,0,0,0-.519.679v4A12.96,12.96,0,0,0,16.66,48.5H2.1a.7.7,0,0,1-.694-.694V35.845H34.6Zm0-13.369H1.406V31.626H34.6Zm0-4.219H1.406V28.1a.7.7,0,0,1,.694-.694H33.9a.7.7,0,0,1,.694.694Z" transform="translate(0 -26.001)"/>
        </g>
      </g>
      <g id="Group_544" data-name="Group 544" transform="translate(2.813 14.767)">
        <g id="Group_543" data-name="Group 543">
          <path id="Path_442" data-name="Path 442" d="M45.626,236a3.167,3.167,0,0,0-1.23.249,3.164,3.164,0,1,0,0,5.83A3.164,3.164,0,1,0,45.626,236Zm-2.461,4.922a1.758,1.758,0,1,1,1.758-1.758,1.758,1.758,0,0,1-1.758,1.758Zm2.635-.009a3.156,3.156,0,0,0,0-3.5,1.758,1.758,0,0,1,0,3.5Z" transform="translate(-40.001 -236.003)"/>
        </g>
      </g>
      <g id="Group_550" data-name="Group 550" transform="translate(20.819 20.446)">
        <g id="Group_549" data-name="Group 549">
          <path id="Path_445" data-name="Path 445" d="M304,299.3a.7.7,0,0,0-.994,0l-3.76,3.76-1.97-1.971a.7.7,0,1,0-.994.994l2.468,2.468a.7.7,0,0,0,.994,0L304,300.3a.7.7,0,0,0,0-1Z" transform="translate(-296.077 -299.098)"/>
        </g>
      </g>
    </g>
  </g>
</svg>
