<svg id="low-price" xmlns="http://www.w3.org/2000/svg" width="36.003" height="35.738" viewBox="0 0 36.003 35.738">
  <path id="Path_434" data-name="Path 434" d="M115.22,15.824v.023a3.886,3.886,0,0,0,2.218,3.707l.015.007a2.613,2.613,0,0,1,1.183,1.138l.006.011a4.06,4.06,0,0,0,3.816,2.129h.024a2.779,2.779,0,0,1,1.643.427,4.165,4.165,0,0,0,4.417,0,2.779,2.779,0,0,1,1.643-.427h.024a4.063,4.063,0,0,0,3.817-2.132l0-.008a2.617,2.617,0,0,1,1.187-1.14l.012-.006a3.886,3.886,0,0,0,2.218-3.707v-.022a2.486,2.486,0,0,1,.433-1.541,3.823,3.823,0,0,0,0-4.323,2.486,2.486,0,0,1-.433-1.54V8.4a3.886,3.886,0,0,0-2.219-3.708l-.013-.007a2.61,2.61,0,0,1-1.182-1.134l-.008-.015a4.063,4.063,0,0,0-3.816-2.129h-.025a2.777,2.777,0,0,1-1.642-.427h0a4.165,4.165,0,0,0-4.417,0,2.781,2.781,0,0,1-1.643.427h-.024a4.061,4.061,0,0,0-3.815,2.129l-.006.01a2.614,2.614,0,0,1-1.184,1.14l-.014.007A3.886,3.886,0,0,0,115.219,8.4v.022a2.485,2.485,0,0,1-.433,1.541,3.823,3.823,0,0,0,0,4.324,2.484,2.484,0,0,1,.432,1.541Zm.671-5.1a3.832,3.832,0,0,0,.668-2.377V8.321A2.548,2.548,0,0,1,118.021,5.9l.011-.006A3.947,3.947,0,0,0,119.82,4.17l.007-.012a2.718,2.718,0,0,1,2.557-1.414h.024a4.107,4.107,0,0,0,2.429-.631,2.817,2.817,0,0,1,2.988,0,4.116,4.116,0,0,0,2.429.632h.024a2.714,2.714,0,0,1,2.557,1.411l.009.017a3.946,3.946,0,0,0,1.786,1.719l.011.006a2.549,2.549,0,0,1,1.465,2.425v.024a3.832,3.832,0,0,0,.668,2.377,2.476,2.476,0,0,1,0,2.8A3.836,3.836,0,0,0,136.1,15.9v.023a2.55,2.55,0,0,1-1.466,2.425l-.01,0a3.951,3.951,0,0,0-1.789,1.724l0,.01a2.717,2.717,0,0,1-2.558,1.414h-.023a4.114,4.114,0,0,0-2.43.632,2.817,2.817,0,0,1-2.988,0,4.108,4.108,0,0,0-2.2-.638q-.113,0-.227.006h-.024a2.715,2.715,0,0,1-2.558-1.415l-.007-.013a3.942,3.942,0,0,0-1.785-1.718l-.012-.006a2.548,2.548,0,0,1-1.465-2.425V15.9a3.835,3.835,0,0,0-.668-2.377,2.476,2.476,0,0,1,0-2.8Zm0,0" transform="translate(-104.556 -0.346)"/>
  <path id="Path_435" data-name="Path 435" d="M204.82,70.892a.67.67,0,0,0,.923-.214l7.941-12.721a.67.67,0,1,0-1.137-.71l-7.94,12.721A.67.67,0,0,0,204.82,70.892Zm0,0" transform="translate(-187.369 -52.186)"/>
  <path id="Path_436" data-name="Path 436" d="M184.394,67.47a3.4,3.4,0,1,0-2.96-3.376A3.192,3.192,0,0,0,184.394,67.47Zm0-5.411a2.088,2.088,0,1,1-1.619,2.035A1.865,1.865,0,0,1,184.394,62.059Zm0,0" transform="translate(-166.232 -55.66)"/>
  <path id="Path_437" data-name="Path 437" d="M267.684,143.891a2.986,2.986,0,1,0,2.96-3.375A3.192,3.192,0,0,0,267.684,143.891Zm4.58,0a1.662,1.662,0,1,1-1.62-2.035A1.865,1.865,0,0,1,272.264,143.891Zm0,0" transform="translate(-245.255 -128.771)"/>
  <path id="Path_438" data-name="Path 438" d="M35.916,269.539a3.386,3.386,0,0,0-4.471-1.363l-5.251,2.481a4.277,4.277,0,0,0-3.646-2.25l-4.847-.134a5.125,5.125,0,0,1-2.2-.569L15,267.449a8.7,8.7,0,0,0-8.058.009l.031-1.117a.67.67,0,0,0-.652-.689l-5.315-.146a.67.67,0,0,0-.688.652L0,277.822a.67.67,0,0,0,.652.689l5.315.146h.019a.671.671,0,0,0,.67-.652l.015-.558,1.381-.739a2.369,2.369,0,0,1,1.768-.193l8.246,2.314.044.011a8.823,8.823,0,0,0,1.813.187,8.944,8.944,0,0,0,3.736-.815.664.664,0,0,0,.083-.045L35.7,270.432a.67.67,0,0,0,.22-.893Zm-34.557,7.65.284-10.324,3.975.109L5.334,277.3Zm21.695-.176a7.6,7.6,0,0,1-4.648.518l-8.224-2.308a3.705,3.705,0,0,0-2.763.3l-.706.378.189-6.864a7.368,7.368,0,0,1,7.485-.4l.493.256a6.47,6.47,0,0,0,2.783.719l4.847.133a2.94,2.94,0,0,1,2.794,2.343l-7.22-.2a.67.67,0,0,0-.037,1.34l7.968.219h.019a.671.671,0,0,0,.67-.652,4.277,4.277,0,0,0-.065-.87l5.385-2.545.016-.008a2.047,2.047,0,0,1,2.316.324Zm0,0" transform="translate(0 -243.288)"/>
</svg>
