<svg xmlns="http://www.w3.org/2000/svg" width="30" height="30" viewBox="0 0 30 30">
  <g id="instagram" transform="translate(-898 -908)">
    <rect id="Rectangle_252" data-name="Rectangle 252" width="30" height="30" rx="5" transform="translate(898 908)" fill="#eee"/>
    <path id="instagram-2" data-name="instagram" d="M6.5,4.16A3.332,3.332,0,1,0,9.829,7.492,3.326,3.326,0,0,0,6.5,4.16Zm0,5.5A2.166,2.166,0,1,1,8.664,7.492,2.17,2.17,0,0,1,6.5,9.658Zm4.245-5.634a.777.777,0,1,1-.777-.777A.775.775,0,0,1,10.743,4.024Zm2.207.789A3.846,3.846,0,0,0,11.9,2.09,3.871,3.871,0,0,0,9.177,1.04C8.1.979,4.889.979,3.816,1.04A3.865,3.865,0,0,0,1.093,2.087,3.858,3.858,0,0,0,.043,4.81c-.061,1.073-.061,4.288,0,5.361a3.846,3.846,0,0,0,1.05,2.723,3.876,3.876,0,0,0,2.723,1.05c1.073.061,4.288.061,5.361,0a3.846,3.846,0,0,0,2.723-1.05,3.871,3.871,0,0,0,1.05-2.723C13.01,9.1,13.01,5.885,12.949,4.812Zm-1.386,6.509a2.193,2.193,0,0,1-1.235,1.235,14.321,14.321,0,0,1-3.83.261,14.433,14.433,0,0,1-3.83-.261,2.193,2.193,0,0,1-1.235-1.235,14.321,14.321,0,0,1-.261-3.83,14.432,14.432,0,0,1,.261-3.83A2.193,2.193,0,0,1,2.667,2.426,14.321,14.321,0,0,1,6.5,2.165a14.433,14.433,0,0,1,3.83.261,2.193,2.193,0,0,1,1.235,1.235,14.32,14.32,0,0,1,.261,3.83A14.312,14.312,0,0,1,11.563,11.322Z" transform="translate(906.65 915.361)"/>
  </g>
</svg>
