<svg width="28" height="28" viewBox="0 0 28 28" fill="none" xmlns="http://www.w3.org/2000/svg">
<path fill-rule="evenodd" clip-rule="evenodd" d="M25.375 5.8335V22.1668C25.375 24.583 23.4162 26.5418 21 26.5418H7C4.58383 26.5418 2.625 24.583 2.625 22.1668V5.8335C2.625 3.41733 4.58383 1.4585 7 1.4585H21C23.4162 1.4585 25.375 3.41733 25.375 5.8335ZM23.625 5.8335C23.625 4.38333 22.4502 3.2085 21 3.2085H7C5.54983 3.2085 4.375 4.38333 4.375 5.8335V22.1668C4.375 23.617 5.54983 24.7918 7 24.7918H21C22.4502 24.7918 23.625 23.617 23.625 22.1668V5.8335Z" fill="#C37A0B"/>
<path fill-rule="evenodd" clip-rule="evenodd" d="M14.0001 6.125C14.4831 6.125 14.8751 6.517 14.8751 7C14.8751 7.483 14.4831 7.875 14.0001 7.875H8.16675C7.68375 7.875 7.29175 7.483 7.29175 7C7.29175 6.517 7.68375 6.125 8.16675 6.125H14.0001Z" fill="#C37A0B"/>
<path fill-rule="evenodd" clip-rule="evenodd" d="M19.8334 10.792C20.3164 10.792 20.7084 11.184 20.7084 11.667C20.7084 12.15 20.3164 12.542 19.8334 12.542H8.16675C7.68375 12.542 7.29175 12.15 7.29175 11.667C7.29175 11.184 7.68375 10.792 8.16675 10.792H19.8334Z" fill="#C37A0B"/>
<path fill-rule="evenodd" clip-rule="evenodd" d="M19.8334 15.4585C20.3164 15.4585 20.7084 15.8505 20.7084 16.3335C20.7084 16.8165 20.3164 17.2085 19.8334 17.2085H8.16675C7.68375 17.2085 7.29175 16.8165 7.29175 16.3335C7.29175 15.8505 7.68375 15.4585 8.16675 15.4585H19.8334Z" fill="#C37A0B"/>
<path fill-rule="evenodd" clip-rule="evenodd" d="M19.8334 20.125C20.3164 20.125 20.7084 20.517 20.7084 21C20.7084 21.483 20.3164 21.875 19.8334 21.875H8.16675C7.68375 21.875 7.29175 21.483 7.29175 21C7.29175 20.517 7.68375 20.125 8.16675 20.125H19.8334Z" fill="#C37A0B"/>
</svg>
