<svg width="30" height="30" viewBox="0 0 30 30" fill="none" xmlns="http://www.w3.org/2000/svg">
<path d="M15 16.121C15.9584 16.121 16.8953 15.8454 17.6921 15.3291C18.489 14.8128 19.1101 14.0789 19.4769 13.2202C19.8437 12.3616 19.9396 11.4167 19.7527 10.5052C19.5657 9.59366 19.1042 8.75635 18.4265 8.09917C17.7488 7.44198 16.8854 6.99443 15.9454 6.81311C15.0055 6.63179 14.0311 6.72484 13.1457 7.0805C12.2603 7.43617 11.5035 8.03846 10.971 8.81123C10.4385 9.58399 10.1543 10.4925 10.1543 11.4219C10.1558 12.6678 10.6668 13.8622 11.5752 14.7431C12.4836 15.6241 13.7153 16.1196 15 16.121ZM15 8.03537C15.6907 8.03536 16.3659 8.23397 16.9402 8.60609C17.5145 8.97821 17.9621 9.50713 18.2265 10.126C18.4908 10.7448 18.56 11.4257 18.4252 12.0826C18.2905 12.7396 17.9579 13.343 17.4695 13.8167C16.981 14.2903 16.3588 14.6128 15.6813 14.7435C15.0039 14.8742 14.3017 14.8071 13.6636 14.5508C13.0255 14.2944 12.4801 13.8604 12.0963 13.3034C11.7126 12.7465 11.5078 12.0917 11.5078 11.4219C11.509 10.5241 11.8773 9.66338 12.5319 9.02854C13.1866 8.3937 14.0742 8.03657 15 8.03548V8.03537ZM13.7561 25.262C13.9028 25.4466 14.0913 25.5961 14.3069 25.6989C14.5226 25.8017 14.7597 25.8552 15 25.8552C15.2403 25.8552 15.4775 25.8017 15.6931 25.6989C15.9088 25.5961 16.0972 25.4466 16.2439 25.262L22.2336 17.7261C23.9179 15.607 24.8819 13.1071 24.9481 10.687C25.02 8.05648 24.0615 5.69977 22.1761 3.87144C20.2693 2.03235 17.6893 1 15 1C12.3107 1 9.73068 2.03235 7.82387 3.87144C5.93851 5.69966 4.97998 8.05637 5.05211 10.6868C5.11831 13.1069 6.08237 15.6068 7.76663 17.7259L13.7561 25.262ZM8.78088 4.79939C10.4339 3.20643 12.6696 2.31235 15 2.31235C17.3304 2.31235 19.5661 3.20643 21.2191 4.79939C24.4043 7.88826 24.3807 12.8744 21.1616 16.9247L15.172 24.4609C15.1517 24.4864 15.1257 24.5071 15.0958 24.5213C15.066 24.5356 15.0332 24.543 15 24.543C14.9668 24.543 14.934 24.5356 14.9042 24.5213C14.8743 24.5071 14.8483 24.4864 14.828 24.4609L8.8384 16.9249C5.61926 12.8744 5.59563 7.88826 8.78088 4.79939ZM5 24.3011C5 23.0244 6.00195 21.8463 7.82139 20.9838C7.98251 20.9082 8.16794 20.8977 8.3371 20.9544C8.50625 21.0111 8.64536 21.1304 8.72397 21.2864C8.80257 21.4423 8.81429 21.6221 8.75654 21.7863C8.69879 21.9506 8.57629 22.086 8.41584 22.1629C7.10513 22.7843 6.35345 23.5636 6.35345 24.3012C6.35345 25.9028 9.90447 27.6875 15 27.6875C20.0955 27.6875 23.6465 25.9028 23.6465 24.301C23.6465 23.5635 22.8949 22.7842 21.5842 22.1627C21.4237 22.0858 21.3012 21.9504 21.2435 21.7861C21.1857 21.6218 21.1974 21.442 21.276 21.2861C21.3546 21.1302 21.4937 21.0108 21.6629 20.9541C21.8321 20.8974 22.0175 20.908 22.1786 20.9835C23.998 21.8461 25 23.0242 25 24.3008C25 25.655 23.888 26.883 21.8688 27.7585C20.0228 28.5592 17.5834 29 15 29C12.4166 29 9.97716 28.5592 8.13122 27.7586C6.11198 26.8831 5 25.6552 5 24.301V24.3011Z" fill="#009F63" stroke="#009F63" stroke-width="0.4"/>
</svg>
