<svg width="34" height="34" viewBox="0 0 34 34" fill="none" xmlns="http://www.w3.org/2000/svg">
<g clip-path="url(#clip0_389_1254)">
<path d="M8.36143 24.0596H7.01085C6.39225 24.0596 5.88817 23.5524 5.88817 22.93V18.4118C5.88817 17.7882 5.38521 17.2822 4.7655 17.2822C4.14578 17.2822 3.64282 17.7882 3.64282 18.4118V22.93C3.64282 24.7983 5.15394 26.3187 7.01085 26.3187H8.36143C8.84867 27.9453 10.334 29.1426 12.1078 29.1426C13.8816 29.1426 15.3669 27.9453 15.8542 26.3187H20.5279H22.9562C23.4434 27.9453 24.9287 29.1426 26.7026 29.1426C28.4764 29.1426 29.9617 27.9453 30.4489 26.3187H32.8773C33.497 26.3187 34 25.8127 34 25.1892V19.5413C34 18.7021 33.6508 17.5431 33.1883 16.845L29.9426 11.9472C29.388 11.1114 28.2609 10.5048 27.2628 10.5048H24.1148V8.24564C24.1148 6.37733 22.6037 4.85693 20.7468 4.85693H17.1598C16.5401 4.85693 16.0372 5.36298 16.0372 5.9865C16.0372 6.61002 16.5401 7.11607 17.1598 7.11607H20.7479C21.3665 7.11607 21.8706 7.62325 21.8706 8.24564V24.0596H20.5279H15.8542C15.3669 22.433 13.8816 21.2357 12.1078 21.2357C10.334 21.2357 8.84867 22.433 8.36143 24.0596ZM26.7026 26.8835C25.7741 26.8835 25.0186 26.1233 25.0186 25.1892C25.0186 24.255 25.7741 23.4948 26.7026 23.4948C27.631 23.4948 28.3866 24.255 28.3866 25.1892C28.3866 26.1233 27.631 26.8835 26.7026 26.8835ZM24.1159 12.7639H27.2639C27.5075 12.7639 27.9398 12.9966 28.0756 13.2011L30.0313 16.1526H24.1159V12.7639ZM24.1159 18.4118H31.4818C31.6345 18.7698 31.7546 19.2442 31.7546 19.5413V24.0596H30.4489C29.9617 22.433 28.4764 21.2357 26.7026 21.2357C25.7079 21.2357 24.8086 21.6209 24.1159 22.2365V18.4118ZM13.7918 25.1892C13.7918 26.1233 13.0362 26.8835 12.1078 26.8835C11.1793 26.8835 10.4238 26.1233 10.4238 25.1892C10.4238 24.255 11.1793 23.4948 12.1078 23.4948C13.0362 23.4948 13.7918 24.255 13.7918 25.1892Z" fill="#764D00" stroke="#FFD78B" stroke-width="0.9"/>
<path d="M14.5714 6.07122C14.5714 5.40093 14.0693 4.85693 13.4505 4.85693H1.12088C0.502154 4.85693 0 5.40093 0 6.07122C0 6.74151 0.502154 7.28551 1.12088 7.28551H13.4505C14.0693 7.28551 14.5714 6.74151 14.5714 6.07122Z" fill="#764D00" stroke="#FFD78B" stroke-width="0.9"/>
<path d="M11.0635 12.1429C11.6593 12.1429 12.1429 11.5989 12.1429 10.9286C12.1429 10.2584 11.6593 9.71436 11.0635 9.71436H3.50795C2.91214 9.71436 2.42859 10.2584 2.42859 10.9286C2.42859 11.5989 2.91214 12.1429 3.50795 12.1429H11.0635Z" fill="#764D00" stroke="#FFD78B" stroke-width="0.9"/>
<path d="M8.74289 15.7855C9.27912 15.7855 9.71432 15.2415 9.71432 14.5712C9.71432 13.9009 9.27912 13.3569 8.74289 13.3569H5.82861C5.29238 13.3569 4.85718 13.9009 4.85718 14.5712C4.85718 15.2415 5.29238 15.7855 5.82861 15.7855H8.74289Z" fill="#764D00" stroke="#FFD78B" stroke-width="0.9"/>
</g>
<defs>
<clipPath id="clip0_389_1254">
<rect width="34" height="34" fill="white"/>
</clipPath>
</defs>
</svg>
