<svg width="110" height="38" viewBox="0 0 110 38" fill="none" xmlns="http://www.w3.org/2000/svg">
<g clip-path="url(#clip0_68_5831)">
<path d="M0 37.2755V32.2238C1.88368 31.871 2.07241 31.5183 2.07241 28.4642V8.33977H7.08394V28.583C7.08394 34.4164 4.25751 37.2755 0 37.2755ZM2.10814 0H7.11875V5.20771H2.10814V0Z" fill="black"/>
<path d="M25.469 30.0321V27.2129C24.6746 28.2844 23.6278 29.1476 22.4196 29.7276C21.2113 30.3076 19.8783 30.5867 18.5363 30.5408C12.4326 30.5408 8.02487 25.8028 8.02487 19.2639C8.02487 12.6444 12.4702 7.83021 18.6526 7.83021C19.9915 7.75514 21.3267 8.0305 22.5238 8.62858C23.7209 9.22665 24.7377 10.1263 25.4718 11.237V8.33529H30.0683V30.0266L25.469 30.0321ZM19.1776 12.6081C15.5981 12.6081 13.074 15.4273 13.074 19.3818C13.074 23.1804 15.5981 25.7638 19.2527 25.7638C23.0577 25.7638 25.3179 22.9446 25.3179 19.3428C25.3179 15.3883 22.7526 12.6081 19.1794 12.6081" fill="black"/>
<path d="M74.6123 27.4541H71.2719V30.7956H74.6123V27.4541Z" fill="black"/>
<path d="M81.2107 31.0087C80.5793 31.0016 79.9554 30.871 79.3751 30.6245C78.7948 30.378 78.2695 30.0204 77.8293 29.5723C77.3891 29.1241 77.0428 28.5943 76.8102 28.0132C76.5776 27.4321 76.4633 26.8113 76.474 26.1863C76.4535 25.5642 76.5588 24.9442 76.7839 24.3629C77.0089 23.7816 77.3491 23.2507 77.7844 22.8014C78.2197 22.3522 78.7414 21.9935 79.3188 21.7467C79.8962 21.4998 80.5176 21.3697 81.1466 21.364C82.1523 21.3533 83.1339 21.6696 83.9404 22.2644C84.747 22.8592 85.3339 23.6996 85.6112 24.6566H83.2107C83.0366 24.2637 82.7459 23.9325 82.3773 23.7068C82.0087 23.481 81.5795 23.3714 81.1466 23.3925C80.7924 23.3987 80.4432 23.4769 80.1208 23.6222C79.7984 23.7676 79.5097 23.977 79.2725 24.2375C79.0354 24.498 78.8549 24.804 78.7423 25.1364C78.6296 25.4689 78.5873 25.8207 78.6179 26.17C78.592 26.5239 78.6389 26.8793 78.7558 27.2147C78.8728 27.5501 79.0572 27.8586 79.2981 28.1214C79.5389 28.3842 79.8312 28.5959 80.1571 28.7437C80.483 28.8914 80.8358 28.9722 81.1942 28.9811C81.612 28.9892 82.0235 28.8793 82.3805 28.6642C82.7375 28.4492 83.0252 28.1379 83.2098 27.7669H85.6102C85.336 28.7088 84.7574 29.5358 83.9632 30.1214C83.169 30.707 82.2029 31.019 81.2125 31.0096" fill="black"/>
<path d="M91.1 31.0095C90.1269 31.0398 89.1669 30.7811 88.3437 30.2666C87.5205 29.7521 86.8718 29.0055 86.4811 28.1228C86.0905 27.2402 85.9759 26.262 86.1519 25.3143C86.328 24.3666 86.7867 23.4927 87.469 22.8054C88.1513 22.118 89.026 21.6486 89.9803 21.4576C90.9345 21.2666 91.9247 21.3627 92.8233 21.7337C93.7218 22.1046 94.4876 22.7334 95.0219 23.5389C95.5562 24.3444 95.8345 25.2899 95.8211 26.2534C95.8234 27.5011 95.3294 28.6996 94.446 29.5896C93.5625 30.4797 92.3605 30.9897 91.1 31.0095ZM91.1 23.3924C90.5305 23.3407 89.9584 23.4606 89.459 23.7364C88.9596 24.0123 88.5561 24.4311 88.3015 24.938C88.047 25.4449 87.9532 26.0162 88.0326 26.5767C88.112 27.1373 88.3608 27.6611 88.7463 28.0792C89.1319 28.4973 89.6361 28.7902 90.1929 28.9195C90.7497 29.0488 91.3331 29.0085 91.8663 28.8037C92.3995 28.599 92.8577 28.2395 93.1807 27.7724C93.5038 27.3052 93.6765 26.7523 93.6763 26.1863C93.7086 25.4777 93.4554 24.7855 92.9724 24.2616C92.4893 23.7378 91.8159 23.4251 91.1 23.3924Z" fill="black"/>
<path d="M107.872 30.7946V25.7392C107.872 23.893 107.2 23.3951 106.208 23.3951C105.024 23.3951 104.416 24.0598 104.416 26.2552V30.7955H102.288V25.7401C102.288 23.9265 101.679 23.396 100.559 23.396C99.3264 23.396 98.8299 24.0779 98.8299 26.2561V30.7964H96.7016V21.5788H98.654V22.4439C98.9118 22.0827 99.2594 21.7935 99.6632 21.6041C100.067 21.4148 100.513 21.3317 100.959 21.363C101.487 21.3266 102.014 21.4422 102.477 21.696C102.94 21.9498 103.319 22.3308 103.567 22.793C103.874 22.3287 104.299 21.9523 104.799 21.7013C105.298 21.4504 105.856 21.3337 106.416 21.363C108.752 21.363 110.001 22.7096 110.001 25.4708V30.7927L107.872 30.7946Z" fill="black"/>
<path d="M60.9291 31.0214C59.6978 31.0538 58.4728 30.8366 57.3294 30.3831C56.186 29.9296 55.1484 29.2495 54.2804 28.3844V37.9964H49.0782V8.0152H53.8497V10.653C54.7183 9.62819 55.8098 8.81106 57.0426 8.26286C58.2754 7.71465 59.6175 7.44957 60.9685 7.48744C67.226 7.48744 71.763 12.3968 71.763 19.1733C71.763 25.9896 67.1867 31.0214 60.9291 31.0214ZM60.3034 12.4385C56.7046 12.4385 53.967 15.3602 53.967 19.2141C53.967 23.1495 56.7046 26.0712 60.3803 26.0712C63.8224 26.0712 66.5188 23.1096 66.5188 19.2957C66.5188 15.3965 63.8197 12.4385 60.2997 12.4385" fill="black"/>
<path d="M30.6455 30.1181V25.459L40.6237 13.0859H31.7898V8.42676H47.1286V13.0859L37.1495 25.459H47.9055V30.1181H30.6455Z" fill="black"/>
<path d="M70.5619 0.602006C71.2213 0.602006 71.8659 0.795536 72.4141 1.15812C72.9624 1.52071 73.3897 2.03607 73.6421 2.63904C73.8944 3.242 73.9605 3.90548 73.8318 4.54559C73.7032 5.18569 73.3856 5.77365 72.9194 6.23514C72.4531 6.69663 71.859 7.01091 71.2123 7.13824C70.5656 7.26556 69.8952 7.2002 69.286 6.95045C68.6768 6.70069 68.1561 6.27775 67.7897 5.7351C67.4234 5.19245 67.2279 4.55447 67.2279 3.90183C67.2286 3.02688 67.5801 2.18797 68.2052 1.56929C68.8303 0.950612 69.6779 0.602727 70.5619 0.602006ZM70.5619 0.268311C69.836 0.268311 69.1264 0.481352 68.5228 0.880508C67.9192 1.27966 67.4488 1.847 67.171 2.51077C66.8932 3.17454 66.8205 3.90494 66.9622 4.60959C67.1038 5.31425 67.4533 5.96153 67.9666 6.46956C68.4799 6.97759 69.1339 7.32356 69.8458 7.46373C70.5578 7.60389 71.2958 7.53195 71.9664 7.25701C72.6371 6.98206 73.2103 6.51646 73.6136 5.91908C74.0169 5.3217 74.2321 4.61938 74.2321 3.90091C74.2321 2.93749 73.8454 2.01352 73.1571 1.33227C72.4688 0.651025 71.5353 0.268311 70.5619 0.268311Z" fill="black"/>
<path d="M69.5128 2.00048H71.0511C71.342 1.98879 71.6272 2.08299 71.8528 2.26527C71.9785 2.36998 72.0788 2.5014 72.1463 2.64975C72.2137 2.7981 72.2465 2.95957 72.2422 3.12218C72.2549 3.36401 72.1877 3.60337 72.0509 3.80409C71.914 4.00481 71.7149 4.15601 71.4836 4.23482L72.3933 6.01666H71.686L70.8679 4.2983H70.1056V6.0212H69.5101L69.5128 2.00048ZM70.1084 3.76057H71.0117C71.0991 3.76648 71.1868 3.75413 71.2691 3.72432C71.3514 3.69451 71.4264 3.64791 71.4893 3.58753C71.5522 3.52716 71.6015 3.45437 71.6342 3.37388C71.6668 3.2934 71.682 3.20703 71.6787 3.12037C71.6843 3.03478 71.6694 2.9491 71.6351 2.8703C71.6009 2.79151 71.5483 2.72183 71.4817 2.66698C71.3549 2.57612 71.1999 2.53216 71.0438 2.54275H70.1084V3.76057Z" fill="black"/>
</g>
<defs>
<clipPath id="clip0_68_5831">
<rect width="110" height="38" fill="white"/>
</clipPath>
</defs>
</svg>
