<svg xmlns="http://www.w3.org/2000/svg" width="157.131" height="79.945" viewBox="0 0 157.131 79.945">
  <g id="logo-tagline" transform="translate(-557 -845)">
    <g id="Group_1" data-name="Group 1" transform="translate(557 845)">
      <path id="Path_1" data-name="Path 1" d="M142.309,223.667V216.4c2.681-.507,2.949-1.014,2.949-5.406V182.057h7.132v29.11c0,8.389-4.022,12.5-10.081,12.5m3-53.6h7.132v7.489h-7.132Z" transform="translate(-141.766 -170.064)"/>
      <path id="Path_2" data-name="Path 2" d="M190.966,225.483v-4.054c-2.842,3.378-5.684,4.786-9.867,4.786-8.687,0-14.961-6.813-14.961-16.216,0-9.515,6.327-16.442,15.122-16.442a10.863,10.863,0,0,1,9.706,4.9V194.29h6.542v31.193Zm-8.955-25.056c-5.094,0-8.687,4.054-8.687,9.741,0,5.462,3.593,9.178,8.794,9.178,5.416,0,8.633-4.054,8.633-9.234,0-5.687-3.646-9.685-8.74-9.685" transform="translate(-154.173 -182.297)"/>
      <path id="Path_3" data-name="Path 3" d="M189.723,309.515a16.019,16.019,0,0,0,.653-3.742h1.29a12.6,12.6,0,0,1-.913,3.742Z" transform="translate(-166.454 -240.726)"/>
      <rect id="Rectangle_2" data-name="Rectangle 2" width="1.69" height="12.555" transform="translate(0 67.173)"/>
      <path id="Path_4" data-name="Path 4" d="M149.153,314.377h1.607v-2.7h1.6v2.7h2.05v1.289h-2.05v5.36c0,.89.219,1.346,1.06,1.346a3.619,3.619,0,0,0,.81-.076v1.19a4.382,4.382,0,0,1-1.389.168c-1.445,0-2.085-.736-2.085-2.257v-5.731h-1.607Z" transform="translate(-145.33 -243.8)"/>
      <path id="Path_5" data-name="Path 5" d="M172.838,323.609a2.105,2.105,0,0,0,2.277,1.59c1.365,0,1.9-.581,1.9-1.412,0-.856-.427-1.252-2.2-1.676-2.655-.636-3.209-1.436-3.209-2.678,0-1.3.966-2.572,3.354-2.572s3.377,1.366,3.5,2.641h-1.552a1.817,1.817,0,0,0-2.016-1.415c-1.3,0-1.689.616-1.689,1.217,0,.682.382,1.021,2.084,1.422,2.817.658,3.381,1.584,3.381,2.944,0,1.6-1.291,2.774-3.6,2.774-2.406,0-3.585-1.2-3.823-2.835Z" transform="translate(-156.831 -246.498)"/>
      <path id="Path_6" data-name="Path 6" d="M208.457,324.231a13.917,13.917,0,0,0,.128,2H207.05a4.939,4.939,0,0,1-.152-1.2,2.917,2.917,0,0,1-2.868,1.414,2.791,2.791,0,0,1-3.125-2.8c0-2.042,1.628-2.977,4.389-2.977h1.585v-.78c0-.807-.262-1.792-2-1.792-1.552,0-1.814.758-1.983,1.472h-1.552c.123-1.261.914-2.718,3.585-2.711,2.27.006,3.527.917,3.527,3Zm-1.566-2.466h-1.5c-1.852,0-2.843.5-2.843,1.794a1.623,1.623,0,0,0,1.808,1.645c2.237,0,2.538-1.484,2.538-3.146Z" transform="translate(-172.276 -246.498)"/>
      <path id="Path_7" data-name="Path 7" d="M223.184,319.381c0-.794,0-1.6-.018-2.306h1.56c.043.27.068,1.232.062,1.5a2.928,2.928,0,0,1,2.924-1.72c1.741,0,3.1,1.049,3.1,3.482v5.884h-1.6v-5.683c0-1.383-.548-2.314-1.967-2.314-1.752,0-2.458,1.314-2.458,3.152v4.844h-1.6Z" transform="translate(-183.867 -246.498)"/>
      <path id="Path_8" data-name="Path 8" d="M267,316.218c0,3.453-1.966,6.529-5.981,6.529-3.752,0-5.845-2.856-5.845-6.458s2.137-6.458,5.993-6.458c3.589,0,5.833,2.654,5.833,6.387m-10.057.017c0,2.714,1.41,5.092,4.15,5.092,2.959,0,4.137-2.4,4.137-5.084,0-2.706-1.336-4.992-4.134-4.992-2.889,0-4.154,2.305-4.154,4.984" transform="translate(-200.535 -242.838)"/>
      <path id="Path_9" data-name="Path 9" d="M285.416,319.381c0-.794,0-1.6-.018-2.306h1.559c.043.27.068,1.232.063,1.5a2.927,2.927,0,0,1,2.924-1.72c1.741,0,3.1,1.049,3.1,3.482v5.884h-1.6v-5.683c0-1.383-.548-2.314-1.967-2.314-1.752,0-2.457,1.314-2.457,3.152v4.844h-1.6Z" transform="translate(-216.27 -246.498)"/>
      <rect id="Rectangle_3" data-name="Rectangle 3" width="1.604" height="13.248" transform="translate(79.877 66.48)"/>
      <path id="Path_10" data-name="Path 10" d="M317.66,308.762h1.6v1.974h-1.6Zm0,4.1h1.6v9.151h-1.6Z" transform="translate(-233.069 -242.282)"/>
      <path id="Path_11" data-name="Path 11" d="M327.491,319.381c0-.794,0-1.6-.018-2.306h1.56c.043.27.068,1.232.062,1.5a2.927,2.927,0,0,1,2.924-1.72c1.741,0,3.1,1.049,3.1,3.482v5.884h-1.6v-5.683c0-1.383-.547-2.314-1.966-2.314-1.752,0-2.458,1.314-2.458,3.152v4.844h-1.6Z" transform="translate(-238.178 -246.498)"/>
      <path id="Path_12" data-name="Path 12" d="M350.139,321.939c.012,1.861.962,3.184,2.539,3.184a2.14,2.14,0,0,0,2.242-1.415h1.615a3.764,3.764,0,0,1-3.907,2.736c-2.921,0-4.112-2.339-4.112-4.694,0-2.722,1.392-4.89,4.216-4.89,3,0,3.979,2.368,3.979,4.32a7.4,7.4,0,0,1-.025.759Zm4.944-1.114c-.018-1.505-.787-2.714-2.375-2.714-1.633,0-2.352,1.12-2.515,2.714Z" transform="translate(-249.135 -246.498)"/>
      <path id="Path_13" data-name="Path 13" d="M381.528,319.072c.346,1.506,1.391,2.319,3.238,2.319,1.988,0,2.776-.919,2.776-2.1,0-1.26-.629-1.965-3.184-2.574-3-.719-4.046-1.732-4.046-3.5,0-1.865,1.4-3.384,4.241-3.384,3.035,0,4.285,1.728,4.456,3.377h-1.72c-.229-1.117-.938-2.034-2.8-2.034-1.552,0-2.423.688-2.423,1.885,0,1.179.719,1.644,2.953,2.176,3.635.871,4.276,2.265,4.276,3.877,0,2.025-1.523,3.612-4.641,3.612-3.206,0-4.586-1.725-4.85-3.652Z" transform="translate(-265.428 -242.838)"/>
      <path id="Path_14" data-name="Path 14" d="M402.422,314.377h1.607v-2.7h1.6v2.7h2.05v1.289h-2.05v5.36c0,.89.22,1.346,1.06,1.346a3.63,3.63,0,0,0,.811-.076v1.19a4.389,4.389,0,0,1-1.39.168c-1.445,0-2.084-.736-2.084-2.257v-5.731h-1.607Z" transform="translate(-277.203 -243.8)"/>
      <path id="Path_15" data-name="Path 15" d="M424.855,321.633c0,2.636-1.533,4.81-4.374,4.81-2.662,0-4.272-2.029-4.272-4.779,0-2.7,1.577-4.8,4.377-4.8,2.579,0,4.269,1.9,4.269,4.773m-6.993.018c0,2.007,1.017,3.471,2.686,3.471,1.7,0,2.656-1.389,2.656-3.464,0-2.059-.95-3.477-2.692-3.477s-2.65,1.382-2.65,3.471" transform="translate(-284.382 -246.498)"/>
      <path id="Path_16" data-name="Path 16" d="M439.339,319.562c0-1.279-.012-2-.018-2.486h1.572c.025.257.049.974.049,1.867a3.285,3.285,0,0,1,3.129-2.084v1.575c-1.906.056-3.129,1.037-3.129,3.35v4.442h-1.6Z" transform="translate(-296.415 -246.498)"/>
      <path id="Path_17" data-name="Path 17" d="M453.527,321.939c.011,1.861.962,3.184,2.539,3.184a2.141,2.141,0,0,0,2.242-1.415h1.615a3.764,3.764,0,0,1-3.907,2.736c-2.921,0-4.112-2.339-4.112-4.694,0-2.722,1.392-4.89,4.216-4.89,3,0,3.979,2.368,3.979,4.32a7.427,7.427,0,0,1-.025.759Zm4.944-1.114c-.018-1.505-.787-2.714-2.375-2.714-1.633,0-2.352,1.12-2.514,2.714Z" transform="translate(-302.967 -246.498)"/>
      <rect id="Rectangle_4" data-name="Rectangle 4" width="4.755" height="4.805" transform="translate(101.983 39.479)"/>
      <path id="Path_18" data-name="Path 18" d="M376.133,248.036a6.82,6.82,0,0,1-6.742-6.935,6.715,6.715,0,0,1,6.651-6.935A6.536,6.536,0,0,1,382.4,238.9H378.98a3.045,3.045,0,0,0-2.938-1.818,3.677,3.677,0,0,0-3.6,3.994,3.771,3.771,0,0,0,3.667,4.042,3.127,3.127,0,0,0,2.87-1.746H382.4a6.449,6.449,0,0,1-6.263,4.663" transform="translate(-260.004 -203.441)"/>
      <path id="Path_19" data-name="Path 19" d="M405.55,248.036a6.938,6.938,0,1,1,6.719-6.84,6.827,6.827,0,0,1-6.719,6.84m0-10.953a4.036,4.036,0,1,0,3.667,4.017,3.848,3.848,0,0,0-3.667-4.017" transform="translate(-275.344 -203.441)"/>
      <path id="Path_20" data-name="Path 20" d="M445.354,247.724v-7.27c0-2.654-.956-3.371-2.369-3.371-1.685,0-2.551.956-2.551,4.113v6.529h-3.029v-7.27c0-2.606-.866-3.371-2.46-3.371-1.754,0-2.46.98-2.46,4.113v6.529h-3.029V234.476h2.779v1.244a3.7,3.7,0,0,1,3.281-1.554,3.9,3.9,0,0,1,3.712,2.056,4.557,4.557,0,0,1,4.054-2.056c3.326,0,5.1,1.936,5.1,5.907v7.653Z" transform="translate(-291.279 -203.441)"/>
      <path id="Path_21" data-name="Path 21" d="M304.91,226.37a12.856,12.856,0,0,1-9.463-3.792v13.828h-7.4v-43.12h6.791v3.793a12.752,12.752,0,0,1,10.132-4.552c8.907,0,15.364,7.06,15.364,16.8,0,9.8-6.513,17.038-15.42,17.038m-.891-26.723c-5.122,0-9.018,4.2-9.018,9.744,0,5.66,3.9,9.861,9.129,9.861,4.9,0,8.74-4.259,8.74-9.744,0-5.6-3.841-9.861-8.852-9.861" transform="translate(-217.647 -181.761)"/>
      <path id="Path_22" data-name="Path 22" d="M233.309,226.538v-6.7l14.2-17.793H234.939v-6.7h21.828v6.7l-14.2,17.793h15.309v6.7Z" transform="translate(-189.148 -183.227)"/>
      <path id="Path_23" data-name="Path 23" d="M346.161,171.348a4.745,4.745,0,1,1-4.745,4.745,4.75,4.75,0,0,1,4.745-4.745m0-.479a5.224,5.224,0,1,0,5.223,5.224,5.224,5.224,0,0,0-5.223-5.224" transform="translate(-245.188 -170.483)"/>
      <path id="Path_24" data-name="Path 24" d="M348.721,176.066h2.186a1.687,1.687,0,0,1,1.141.381,1.556,1.556,0,0,1,.554,1.232,1.6,1.6,0,0,1-1.08,1.6l1.295,2.563h-1.006l-1.158-2.468h-1.085v2.468h-.847Zm.847,2.532h1.285a.889.889,0,0,0,.949-.921.781.781,0,0,0-.28-.656.953.953,0,0,0-.623-.179h-1.331Z" transform="translate(-249.241 -173.189)"/>
      <line id="Line_1" data-name="Line 1" x2="155.778" transform="translate(0.395 61.322)"/>
      <line id="Line_2" data-name="Line 2" x2="155.778" transform="translate(0.395 61.322)" fill="none"/>
    </g>
  </g>
</svg>
