<svg xmlns="http://www.w3.org/2000/svg" width="30" height="30" viewBox="0 0 30 30">
  <g id="mail" transform="translate(-375 -2499)">
    <rect id="Rectangle_373" data-name="Rectangle 373" width="30" height="30" rx="5" transform="translate(375 2499)" fill="#eee"/>
    <path id="email" d="M15.712,59.882H1.625A1.627,1.627,0,0,0,0,61.507V71.26a1.627,1.627,0,0,0,1.625,1.625H15.712a1.627,1.627,0,0,0,1.625-1.625V61.507a1.627,1.627,0,0,0-1.625-1.625Zm0,1.084a.539.539,0,0,1,.208.042L8.669,67.292,1.418,61.008a.539.539,0,0,1,.208-.042Zm0,10.836H1.625a.542.542,0,0,1-.542-.542V62.152l7.23,6.266a.543.543,0,0,0,.71,0l7.23-6.266V71.26A.542.542,0,0,1,15.712,71.8Z" transform="translate(381 2447.118)"/>
  </g>
</svg>
