<?xml version="1.0" encoding="utf-8"?>
<!-- Generator: Adobe Illustrator 16.0.0, SVG Export Plug-In . SVG Version: 6.00 Build 0)  -->
<!DOCTYPE svg PUBLIC "-//W3C//DTD SVG 1.1//EN" "http://www.w3.org/Graphics/SVG/1.1/DTD/svg11.dtd">
<svg version="1.1" id="Layer_1" xmlns="http://www.w3.org/2000/svg" xmlns:xlink="http://www.w3.org/1999/xlink" x="0px" y="0px"
	 width="24px" height="24px" viewBox="0 0 24 24" enable-background="new 0 0 24 24" xml:space="preserve">
<path fill="#E3BD00" d="M17,22.75H7c-3.44,0-5.75-2.311-5.75-5.75v-5c0-3.08,1.9-5.31,4.85-5.68C6.38,6.28,6.69,6.25,7,6.25h10
	c0.24,0,0.55,0.01,0.87,0.06c2.95,0.34,4.88,2.58,4.88,5.69v5C22.75,20.439,20.439,22.75,17,22.75z M7,7.75
	c-0.24,0-0.47,0.02-0.7,0.05C4.1,8.08,2.75,9.68,2.75,12v5c0,2.58,1.67,4.25,4.25,4.25h10c2.58,0,4.25-1.67,4.25-4.25v-5
	c0-2.34-1.37-3.95-3.59-4.21C17.42,7.75,17.21,7.75,17,7.75H7z"/>
<path fill="#E3BD00" d="M6.19,7.81c-0.24,0-0.46-0.11-0.61-0.31C5.41,7.27,5.39,6.97,5.52,6.72c0.17-0.34,0.41-0.67,0.72-0.97
	l3.25-3.26c1.66-1.65,4.359-1.65,6.02,0l1.75,1.77C18,4.99,18.45,5.97,18.5,7.01c0.01,0.23-0.08,0.45-0.25,0.6s-0.4,0.22-0.62,0.18
	c-0.2-0.03-0.409-0.04-0.63-0.04H7c-0.24,0-0.47,0.02-0.7,0.05C6.27,7.81,6.23,7.81,6.19,7.81z M7.86,6.25h8.96
	c-0.131-0.34-0.34-0.65-0.62-0.93l-1.761-1.78c-1.069-1.06-2.819-1.06-3.899,0L7.86,6.25z"/>
<path fill="#E3BD00" d="M22,17.25h-3c-1.52,0-2.75-1.23-2.75-2.75s1.23-2.75,2.75-2.75h3c0.41,0,0.75,0.34,0.75,0.75
	s-0.34,0.75-0.75,0.75h-3c-0.689,0-1.25,0.561-1.25,1.25s0.561,1.25,1.25,1.25h3c0.41,0,0.75,0.34,0.75,0.75S22.41,17.25,22,17.25z"
	/>
</svg>
