<svg xmlns="http://www.w3.org/2000/svg" width="30" height="30" viewBox="0 0 30 30">
  <g id="phone" transform="translate(-595 -1077)">
    <rect id="Rectangle_375" data-name="Rectangle 375" width="30" height="30" rx="5" transform="translate(595 1077)" fill="#eee"/>
    <g id="phone-2" data-name="phone" transform="translate(604 1086)">
      <g id="Group_591" data-name="Group 591">
        <path id="Path_462" data-name="Path 462" d="M11.957,8.533a7.381,7.381,0,0,1-2.318-.369,1.02,1.02,0,0,0-1.03.217l-1.462,1.1A8.078,8.078,0,0,1,3.515,5.853L4.586,4.43a1.051,1.051,0,0,0,.258-1.065,7.392,7.392,0,0,1-.371-2.322A1.044,1.044,0,0,0,3.431,0H1.043A1.044,1.044,0,0,0,0,1.043,11.97,11.97,0,0,0,11.957,13,1.044,1.044,0,0,0,13,11.957V9.576A1.044,1.044,0,0,0,11.957,8.533Zm.321,3.424a.321.321,0,0,1-.321.321A11.247,11.247,0,0,1,.722,1.043.321.321,0,0,1,1.043.722H3.431a.321.321,0,0,1,.321.321,8.1,8.1,0,0,0,.406,2.543.359.359,0,0,1-.114.37L2.8,5.6a.361.361,0,0,0-.034.381,8.965,8.965,0,0,0,4.25,4.25A.36.36,0,0,0,7.4,10.2L9.081,8.924a.319.319,0,0,1,.327-.076,8.109,8.109,0,0,0,2.548.407.321.321,0,0,1,.321.321Z"/>
      </g>
    </g>
  </g>
</svg>
