<?xml version="1.0" encoding="utf-8"?>
<!-- Generator: Adobe Illustrator 16.0.0, SVG Export Plug-In . SVG Version: 6.00 Build 0)  -->
<!DOCTYPE svg PUBLIC "-//W3C//DTD SVG 1.1//EN" "http://www.w3.org/Graphics/SVG/1.1/DTD/svg11.dtd">
<svg version="1.1" id="Layer_1" xmlns="http://www.w3.org/2000/svg" xmlns:xlink="http://www.w3.org/1999/xlink" x="0px" y="0px"
	 width="24px" height="24px" viewBox="0 0 24 24" enable-background="new 0 0 24 24" xml:space="preserve">
<path fill="#E3BD00" d="M11.42,19.25H8.69C6,19.25,4.75,18,4.75,15.311v-2.73C4.75,9.9,6,8.65,8.69,8.65h2.73
	c2.68,0,3.939,1.25,3.939,3.94v2.73C15.35,18,14.1,19.25,11.42,19.25z M8.69,10.15c-1.87,0-2.44,0.57-2.44,2.44v2.73
	c0,1.869,0.57,2.439,2.44,2.439h2.73c1.87,0,2.439-0.57,2.439-2.439v-2.73c0-1.87-0.569-2.44-2.439-2.44H8.69z"/>
<path fill="#E3BD00" d="M15.311,15.35h-0.71c-0.41,0-0.75-0.34-0.75-0.75v-2.02c0-1.87-0.57-2.44-2.44-2.44H9.4
	c-0.41,0-0.75-0.34-0.75-0.75v-0.7c0-2.68,1.25-3.94,3.939-3.94h2.73C18,4.75,19.26,6,19.26,8.69v2.73
	C19.25,14.1,18,15.35,15.311,15.35z M10.15,8.65h1.27c2.68,0,3.94,1.25,3.94,3.94v1.27c1.84-0.01,2.399-0.579,2.399-2.439V8.69
	c0-1.87-0.569-2.44-2.439-2.44h-2.73C10.73,6.25,10.16,6.81,10.15,8.65z"/>
<path fill="#E3BD00" d="M15,22.75c-0.27,0-0.52-0.15-0.65-0.38c-0.129-0.239-0.129-0.521,0.011-0.76l1.05-1.75
	c0.21-0.36,0.67-0.47,1.03-0.261c0.36,0.211,0.47,0.67,0.26,1.031L16.43,21.08c2.761-0.65,4.83-3.13,4.83-6.09
	c0-0.41,0.34-0.75,0.75-0.75s0.75,0.34,0.75,0.75C22.75,19.27,19.27,22.75,15,22.75z"/>
<path fill="#E3BD00" d="M2,9.75C1.59,9.75,1.25,9.41,1.25,9c0-4.27,3.48-7.75,7.75-7.75c0.27,0,0.52,0.15,0.65,0.38
	c0.13,0.24,0.13,0.52-0.01,0.76L8.59,4.14C8.38,4.49,7.92,4.61,7.56,4.39C7.21,4.18,7.09,3.72,7.31,3.36l0.27-0.45
	C4.81,3.56,2.75,6.04,2.75,9C2.75,9.41,2.41,9.75,2,9.75z"/>
</svg>
