<svg width="37" height="32" viewBox="0 0 37 32" fill="none" xmlns="http://www.w3.org/2000/svg">
<g clip-path="url(#clip0_389_1283)">
<path d="M34.6894 18.9227C34.3316 18.3319 32.8707 16.5705 29.0932 18.7182L23.6682 21.8025C23.551 21.8691 23.4332 21.9279 23.3142 21.9791C23.3324 21.9249 23.3492 21.8697 23.3645 21.8132C23.5491 21.1345 23.4417 20.4 23.0697 19.7979C22.7115 19.2179 22.1526 18.8205 21.4959 18.6786C19.6575 18.2815 17.8354 17.6618 16.3714 17.1638C15.9156 17.0088 15.485 16.8624 15.1158 16.7444C13.4103 16.1995 11.8936 16.8603 10.6349 17.5786L6.1901 20.1152L5.80372 19.4428C5.57519 19.0449 5.20209 18.7583 4.75326 18.6358C4.30436 18.5134 3.83478 18.5698 3.43092 18.7949L1.66894 19.7772C0.833467 20.2429 0.538466 21.2914 1.01124 22.1143L6.19152 31.1302C6.5115 31.687 7.10225 32 7.70967 32C7.99997 32 8.29409 31.9285 8.56426 31.7779L10.3262 30.7957C10.7301 30.5706 11.021 30.2031 11.1455 29.761C11.2699 29.3189 11.2125 28.8563 10.9839 28.4586L10.6504 27.8781L11.4 27.4519L19.3397 29.5474C19.8064 29.6706 20.271 29.7318 20.7278 29.7318C21.6528 29.7318 22.5463 29.4809 23.3632 28.9854L33.9049 22.5917C35.0555 21.8938 35.4294 20.1451 34.6894 18.9227ZM9.57193 29.3314C9.56635 29.3513 9.55315 29.3787 9.52206 29.396L7.76008 30.3783C7.70987 30.4061 7.64102 30.3874 7.61258 30.338L2.43237 21.3222C2.404 21.2728 2.42305 21.2048 2.47326 21.1769L4.23524 20.1947C4.25299 20.1848 4.27055 20.1815 4.28606 20.1815C4.29783 20.1815 4.30851 20.1834 4.31722 20.1858C4.33736 20.1913 4.36518 20.2043 4.38274 20.2349L9.56302 29.2507C9.58057 29.2814 9.57758 29.3115 9.57193 29.3314ZM33.0488 21.2221L22.5072 27.6158C21.6668 28.1255 20.7433 28.2527 19.7624 27.9939L11.496 25.8122C11.2869 25.7569 11.064 25.7857 10.8766 25.8924L9.84625 26.4783L6.99448 21.5151L11.4535 18.9704C12.814 18.1941 13.7292 17.9924 14.6121 18.2744C14.9667 18.3876 15.3902 18.5317 15.8385 18.6842C17.3427 19.1958 19.2147 19.8325 21.1462 20.2497C21.363 20.2965 21.5507 20.4329 21.6749 20.6339C21.8161 20.8625 21.8571 21.1406 21.7873 21.397C21.7377 21.5795 21.5925 22.1151 20.745 22.0695C19.733 21.8745 17.0098 21.1136 16.5541 20.9934C16.1185 20.8783 15.6709 21.1331 15.5541 21.562C15.4375 21.991 15.6959 22.4319 16.1315 22.5469C16.5756 22.6641 19.216 23.4018 20.1925 23.6007C20.2917 23.6243 20.9356 23.74 21.1478 23.7734C22.3703 23.9661 23.4617 23.7771 24.4845 23.1954L29.9095 20.1112C31.5606 19.1724 32.8548 19.0326 33.287 19.7465C33.5989 20.2617 33.4136 21.0009 33.0488 21.2221ZM20.2104 16.4839C24.8242 16.4839 28.5779 12.7866 28.5779 8.24197C28.5779 3.69732 24.8242 0 20.2104 0C15.5965 0 11.8429 3.69732 11.8429 8.24197C11.843 12.7866 15.5966 16.4839 20.2104 16.4839ZM20.2104 1.60828C23.9239 1.60828 26.945 4.58412 26.945 8.24191C26.945 11.8997 23.9239 14.8755 20.2104 14.8755C16.4969 14.8755 13.4757 11.8997 13.4757 8.24191C13.4757 4.58412 16.4969 1.60828 20.2104 1.60828ZM17.0858 6.40216C17.0858 5.18323 18.0657 4.15429 19.394 3.84985V3.46036C19.394 3.01625 19.7596 2.65618 20.2104 2.65618C20.6613 2.65618 21.0268 3.01625 21.0268 3.46036V3.85005C22.0785 4.0909 22.9319 4.78664 23.2257 5.70387C23.3613 6.12747 23.1227 6.57914 22.6927 6.71277C22.2628 6.84633 21.8041 6.61124 21.6685 6.18778C21.5379 5.77973 20.9951 5.36665 20.2104 5.36665C19.4018 5.36665 18.7186 5.84084 18.7186 6.40216C18.7186 6.96347 19.4018 7.43766 20.2104 7.43766C21.9333 7.43766 23.3351 8.62369 23.3351 10.0816C23.3351 11.3005 22.3552 12.3295 21.0268 12.6339V13.0234C21.0268 13.4675 20.6613 13.8276 20.2104 13.8276C19.7596 13.8276 19.394 13.4675 19.394 13.0234V12.6357C18.4526 12.4239 17.6733 11.8504 17.3039 11.0574C17.1158 10.6538 17.2956 10.1763 17.7054 9.99112C18.1153 9.80582 18.5998 9.98294 18.788 10.3866C18.9884 10.8167 19.5733 11.117 20.2105 11.117C21.0192 11.117 21.7023 10.6428 21.7023 10.0815C21.7023 9.52021 21.0191 9.04594 20.2105 9.04594C18.4875 9.04601 17.0858 7.85999 17.0858 6.40216Z" fill="#6393E8"/>
</g>
<defs>
<clipPath id="clip0_389_1283">
<rect width="35.4286" height="32" fill="white" transform="translate(0.785767)"/>
</clipPath>
</defs>
</svg>
