<?xml version="1.0" encoding="utf-8"?>
<!-- Generator: Adobe Illustrator 16.0.0, SVG Export Plug-In . SVG Version: 6.00 Build 0)  -->
<!DOCTYPE svg PUBLIC "-//W3C//DTD SVG 1.1//EN" "http://www.w3.org/Graphics/SVG/1.1/DTD/svg11.dtd">
<svg version="1.1" id="Layer_1" xmlns="http://www.w3.org/2000/svg" xmlns:xlink="http://www.w3.org/1999/xlink" x="0px" y="0px"
	 width="24px" height="24px" viewBox="0 0 24 24" enable-background="new 0 0 24 24" xml:space="preserve">
<path fill="#E3BD00" d="M12,22.76c-1.09,0-2.17-0.32-3.02-0.949L4.68,18.6c-1.14-0.85-2.03-2.63-2.03-4.039V7.12
	c0-1.54,1.13-3.18,2.58-3.72l4.99-1.87c0.99-0.37,2.55-0.37,3.54,0l4.99,1.87c1.45,0.54,2.58,2.18,2.58,3.72v7.43
	c0,1.42-0.89,3.19-2.029,4.04L15,21.8C14.17,22.439,13.09,22.76,12,22.76z M10.75,2.94L5.76,4.81c-0.85,0.32-1.6,1.4-1.6,2.32v7.431
	c0,0.949,0.67,2.279,1.42,2.84l4.3,3.209c1.15,0.86,3.09,0.86,4.25,0L18.43,17.4c0.761-0.57,1.421-1.891,1.421-2.84V7.12
	c0-0.91-0.75-1.99-1.601-2.32l-4.99-1.87C12.58,2.69,11.42,2.69,10.75,2.94z"/>
<path fill="#E3BD00" d="M10.66,14.23c-0.19,0-0.38-0.07-0.53-0.221L8.52,12.4c-0.29-0.29-0.29-0.77,0-1.06
	c0.29-0.29,0.77-0.29,1.06,0l1.08,1.08l3.77-3.77c0.291-0.29,0.771-0.29,1.061,0c0.29,0.29,0.29,0.77,0,1.06l-4.3,4.3
	C11.04,14.16,10.85,14.23,10.66,14.23z"/>
</svg>
