<?xml version="1.0" encoding="utf-8"?>
<!-- Generator: Adobe Illustrator 16.0.0, SVG Export Plug-In . SVG Version: 6.00 Build 0)  -->
<!DOCTYPE svg PUBLIC "-//W3C//DTD SVG 1.1//EN" "http://www.w3.org/Graphics/SVG/1.1/DTD/svg11.dtd">
<svg version="1.1" id="Layer_1" xmlns="http://www.w3.org/2000/svg" xmlns:xlink="http://www.w3.org/1999/xlink" x="0px" y="0px"
	 width="24px" height="24px" viewBox="0 0 24 24" enable-background="new 0 0 24 24" xml:space="preserve">
<path fill="#E3BD00" d="M12.069,21.98c-1.41,0-2.83-0.54-3.9-1.61l-4.53-4.53c-1.1-1.1-1.68-2.619-1.61-4.169l0.24-5
	c0.11-2.39,2-4.28,4.4-4.4l5-0.24c1.55-0.06,3.07,0.51,4.17,1.61l4.53,4.53c2.15,2.15,2.15,5.66,0,7.811l-4.391,4.39
	C14.898,21.44,13.489,21.98,12.069,21.98z M4.699,14.77l4.53,4.531c0.76,0.76,1.77,1.18,2.84,1.18c1.069,0,2.079-0.42,2.84-1.18
	l4.39-4.391c0.76-0.76,1.18-1.77,1.18-2.84s-0.42-2.08-1.18-2.84L14.77,4.7c-0.801-0.8-1.91-1.23-3.03-1.17l-5,0.24
	c-1.63,0.07-2.9,1.34-2.98,2.96l-0.24,5C3.469,12.86,3.899,13.971,4.699,14.77z"/>
<path fill="#E3BD00" d="M9.5,12.75c-1.79,0-3.25-1.46-3.25-3.25S7.71,6.25,9.5,6.25s3.25,1.46,3.25,3.25S11.29,12.75,9.5,12.75z
	 M9.5,7.75c-0.96,0-1.75,0.79-1.75,1.75s0.79,1.75,1.75,1.75s1.75-0.79,1.75-1.75S10.46,7.75,9.5,7.75z"/>
</svg>
