<?xml version="1.0" encoding="utf-8"?>
<!-- Generator: Adobe Illustrator 16.0.0, SVG Export Plug-In . SVG Version: 6.00 Build 0)  -->
<!DOCTYPE svg PUBLIC "-//W3C//DTD SVG 1.1//EN" "http://www.w3.org/Graphics/SVG/1.1/DTD/svg11.dtd">
<svg version="1.1" id="Layer_1" xmlns="http://www.w3.org/2000/svg" xmlns:xlink="http://www.w3.org/1999/xlink" x="0px" y="0px"
	 width="24px" height="24px" viewBox="0 0 24 24" enable-background="new 0 0 24 24" xml:space="preserve">
<path fill="#E3BD00" d="M13,14.75h-1c-0.41,0-0.75-0.34-0.75-0.75s0.34-0.75,0.75-0.75h1c0.689,0,1.25-0.561,1.25-1.25V2.75H6
	c-1.18,0-2.26,0.64-2.84,1.67C2.96,4.78,2.5,4.91,2.14,4.71c-0.36-0.2-0.49-0.66-0.29-1.02C2.69,2.19,4.28,1.25,6,1.25h9
	c0.41,0,0.75,0.34,0.75,0.75v10C15.75,13.52,14.52,14.75,13,14.75z"/>
<path fill="#E3BD00" d="M19,20.75h-1c-0.41,0-0.75-0.34-0.75-0.75c0-0.689-0.561-1.25-1.25-1.25s-1.25,0.561-1.25,1.25
	c0,0.41-0.34,0.75-0.75,0.75h-4c-0.41,0-0.75-0.34-0.75-0.75c0-0.689-0.56-1.25-1.25-1.25S6.75,19.311,6.75,20
	c0,0.41-0.34,0.75-0.75,0.75H5c-2.07,0-3.75-1.68-3.75-3.75c0-0.41,0.34-0.75,0.75-0.75S2.75,16.59,2.75,17
	c0,1.24,1.01,2.25,2.25,2.25h0.35c0.33-1.15,1.39-2,2.65-2s2.32,0.85,2.65,2h2.709c0.33-1.15,1.391-2,2.65-2s2.32,0.85,2.65,2H19
	c1.24,0,2.25-1.01,2.25-2.25v-2.25H19c-0.96,0-1.75-0.79-1.75-1.75v-3c0-0.96,0.779-1.75,1.75-1.75l-1.07-1.87
	c-0.22-0.39-0.64-0.63-1.09-0.63h-1.09V12c0,1.52-1.23,2.75-2.75,2.75h-1c-0.41,0-0.75-0.34-0.75-0.75s0.34-0.75,0.75-0.75h1
	c0.689,0,1.25-0.561,1.25-1.25V5c0-0.41,0.34-0.75,0.75-0.75h1.84c0.99,0,1.9,0.53,2.391,1.39l1.709,2.99
	c0.131,0.23,0.131,0.52,0,0.75c-0.129,0.23-0.379,0.37-0.649,0.37H19c-0.141,0-0.25,0.11-0.25,0.25v3c0,0.141,0.109,0.25,0.25,0.25
	h3c0.41,0,0.75,0.34,0.75,0.75v3C22.75,19.07,21.07,20.75,19,20.75z"/>
<path fill="#E3BD00" d="M8,22.75c-1.52,0-2.75-1.23-2.75-2.75S6.48,17.25,8,17.25s2.75,1.23,2.75,2.75S9.52,22.75,8,22.75z M8,18.75
	c-0.69,0-1.25,0.561-1.25,1.25S7.31,21.25,8,21.25S9.25,20.689,9.25,20S8.69,18.75,8,18.75z"/>
<path fill="#E3BD00" d="M16,22.75c-1.52,0-2.75-1.23-2.75-2.75s1.23-2.75,2.75-2.75s2.75,1.23,2.75,2.75S17.52,22.75,16,22.75z
	 M16,18.75c-0.689,0-1.25,0.561-1.25,1.25s0.561,1.25,1.25,1.25s1.25-0.561,1.25-1.25S16.689,18.75,16,18.75z"/>
<path fill="#E3BD00" d="M22,14.75h-3c-0.96,0-1.75-0.79-1.75-1.75v-3c0-0.96,0.79-1.75,1.75-1.75h1.29
	c0.271,0,0.521,0.14,0.649,0.38l1.711,3c0.06,0.11,0.1,0.24,0.1,0.37v2C22.75,14.41,22.41,14.75,22,14.75z M19,9.75
	c-0.141,0-0.25,0.11-0.25,0.25v3c0,0.141,0.109,0.25,0.25,0.25h2.25V12.2l-1.4-2.45H19z"/>
<path fill="#E3BD00" d="M8,8.75H2C1.59,8.75,1.25,8.41,1.25,8S1.59,7.25,2,7.25h6c0.41,0,0.75,0.34,0.75,0.75S8.41,8.75,8,8.75z"/>
<path fill="#E3BD00" d="M6,11.75H2c-0.41,0-0.75-0.34-0.75-0.75S1.59,10.25,2,10.25h4c0.41,0,0.75,0.34,0.75,0.75
	S6.41,11.75,6,11.75z"/>
<path fill="#E3BD00" d="M4,14.75H2c-0.41,0-0.75-0.34-0.75-0.75S1.59,13.25,2,13.25h2c0.41,0,0.75,0.34,0.75,0.75
	S4.41,14.75,4,14.75z"/>
</svg>
