<svg xmlns="http://www.w3.org/2000/svg" width="30" height="30" viewBox="0 0 30 30">
  <g id="twitter" transform="translate(-856 -908)">
    <rect id="Rectangle_251" data-name="Rectangle 251" width="30" height="30" rx="5" transform="translate(856 908)" fill="#eee"/>
    <path id="twitter-2" data-name="twitter" d="M14.358,4.742c.01.142.01.284.01.426A9.268,9.268,0,0,1,5.037,14.5,9.269,9.269,0,0,1,0,13.028a6.785,6.785,0,0,0,.792.041,6.569,6.569,0,0,0,4.072-1.4A3.286,3.286,0,0,1,1.8,9.392a4.136,4.136,0,0,0,.619.051,3.469,3.469,0,0,0,.863-.112A3.28,3.28,0,0,1,.65,6.113V6.072a3.3,3.3,0,0,0,1.483.416A3.285,3.285,0,0,1,1.117,2.1,9.323,9.323,0,0,0,7.88,5.534,3.7,3.7,0,0,1,7.8,4.782a3.283,3.283,0,0,1,5.676-2.244,6.457,6.457,0,0,0,2.082-.792,3.271,3.271,0,0,1-1.442,1.807A6.575,6.575,0,0,0,16,3.046a7.05,7.05,0,0,1-1.645,1.7Z" transform="translate(862.727 914.853)"/>
  </g>
</svg>
