<svg xmlns="http://www.w3.org/2000/svg" width="239" height="23" viewBox="0 0 239 23">
  <g id="payment" transform="translate(-830.5 -1089.5)">
    <rect id="Rectangle_382" data-name="Rectangle 382" width="42" height="22" rx="1" transform="translate(1027 1090)" fill="#fff" stroke="#eee" stroke-width="1"/>
    <path id="Path_475" data-name="Path 475" d="M30.608,5,29.435,6.21,28.34,5h-10.8l-.927,2.046L15.664,5H11.339v.931L10.858,5h-3.7L3.538,12.926H7.874l.537-1.263H9.64l.537,1.263H14.95v-.964l.423.966h2.471l.423-.987v.986h9.926L29.4,11.695l1.13,1.232,5.1.011L31.995,8.984,35.627,5H30.608Zm.615,1.124h1.743l-2.65,2.86,2.65,2.828H31.144L29.4,9.928l-1.81,1.885H21.981V6.124h5.7L29.424,7.99l1.8-1.865Zm-12.831,0h2.3v5.688H19.3l-.011-4.457-2.045,4.457H15.988L13.933,7.355v4.457H11.049L10.5,10.536H7.549L7,11.811H5.46L8,6.123H10.11l2.4,5.377V6.124h2.312L16.682,9.98l1.71-3.856ZM8.053,9.36H10L9.025,7.089ZM23.388,7.3V8.34H26.5V9.5H23.387v1.135h3.488L28.5,8.962,26.941,7.3H23.388Z" transform="translate(1027.92 1091.614)" fill="#1ca9e1" fill-rule="evenodd"/>
    <rect id="Rectangle_380" data-name="Rectangle 380" width="43" height="22" rx="1.24" transform="translate(977 1090)" fill="#fff" stroke="#eee" stroke-width="1"/>
    <path id="Path_470" data-name="Path 470" d="M11.118,18.26h25.11a1.63,1.63,0,0,0,1.632-1.634V9s-9.445,6.4-26.741,9.26Z" transform="translate(981.681 1093.3)" fill="#f58220"/>
    <path id="Path_471" data-name="Path 471" d="M189.694,9.36a1.907,1.907,0,0,1-1.341.386h-.262V6.537h.262a1.868,1.868,0,0,1,1.341.392,1.613,1.613,0,0,1,.538,1.208A1.643,1.643,0,0,1,189.694,9.36ZM188.55,5.716h-1.439v4.852h1.429a2.675,2.675,0,0,0,1.792-.561,2.406,2.406,0,0,0,.91-1.864,2.456,2.456,0,0,0-2.692-2.427Zm3.144,0h.975v4.852h-.975Zm3.369,1.86c-.589-.209-.761-.348-.761-.61,0-.3.308-.537.73-.537a1.027,1.027,0,0,1,.792.392l.509-.647a2.228,2.228,0,0,0-1.474-.538A1.454,1.454,0,0,0,193.3,7.023c0,.671.315,1.011,1.233,1.333a3.746,3.746,0,0,1,.677.278.574.574,0,0,1,.294.5.705.705,0,0,1-.761.684,1.16,1.16,0,0,1-1.068-.648l-.631.591a1.968,1.968,0,0,0,1.737.925,1.6,1.6,0,0,0,1.732-1.594c0-.773-.332-1.123-1.446-1.516m1.753.567a2.558,2.558,0,0,0,2.65,2.533,2.76,2.76,0,0,0,1.225-.283V9.278a1.579,1.579,0,0,1-1.181.532,1.61,1.61,0,0,1-1.684-1.673,1.642,1.642,0,0,1,2.865-1.12V5.9a2.569,2.569,0,0,0-1.2-.3,2.6,2.6,0,0,0-2.671,2.537m11.8.831-1.337-3.258h-1.068l2.128,4.975h.524l2.169-4.975h-1.058L208.62,8.974m2.859,1.594h2.775V9.746h-1.8V8.437h1.729V7.614h-1.729V6.537h1.8v-.82h-2.775v4.852m4.687-2.622h-.284V6.479h.3c.611,0,.939.249.939.721S216.793,7.947,216.165,7.947Zm1.963-.8c0-.909-.646-1.431-1.775-1.431H214.9v4.852h.982V8.617h.127l1.352,1.951h1.2l-1.578-2.045a1.3,1.3,0,0,0,1.143-1.376Z" transform="translate(795.72 1091.81)" fill="#1a1919" fill-rule="evenodd"/>
    <path id="Path_472" data-name="Path 472" d="M202.934,8.151a2.617,2.617,0,0,1-5.232,0,2.617,2.617,0,0,1,5.232,0" transform="translate(799.139 1091.814)" fill="#f58220" fill-rule="evenodd"/>
    <rect id="Rectangle_383" data-name="Rectangle 383" width="42" height="22" rx="1" transform="translate(929 1090)" fill="#fff" stroke="#eee" stroke-width="1"/>
    <ellipse id="Ellipse_13" data-name="Ellipse 13" cx="6.686" cy="6.614" rx="6.686" ry="6.614" transform="translate(938.249 1093.969)" fill="#007bdb"/>
    <ellipse id="Ellipse_14" data-name="Ellipse 14" cx="6.686" cy="6.614" rx="6.686" ry="6.614" transform="translate(947.607 1093.969)" fill="#e42b00"/>
    <path id="Path_476" data-name="Path 476" d="M9.08,10.891a7.82,7.82,0,0,0,2.007-4.736A7.818,7.818,0,0,0,9.079,1.42a6.309,6.309,0,0,0-2,4.736A6.308,6.308,0,0,0,9.08,10.891Z" transform="translate(940.532 1094.427)" fill="#1740ce" fill-rule="evenodd"/>
    <rect id="Rectangle_384" data-name="Rectangle 384" width="43" height="22" rx="1" transform="translate(879 1090)" fill="#fff" stroke="#eee" stroke-width="1"/>
    <ellipse id="Ellipse_15" data-name="Ellipse 15" cx="6.686" cy="6.614" rx="6.686" ry="6.614" transform="translate(889.303 1093.969)" fill="#c00"/>
    <ellipse id="Ellipse_16" data-name="Ellipse 16" cx="6.686" cy="6.614" rx="6.686" ry="6.614" transform="translate(898.663 1093.969)" fill="#f90"/>
    <path id="Path_477" data-name="Path 477" d="M9.08,10.891a7.82,7.82,0,0,0,2.007-4.736A7.818,7.818,0,0,0,9.079,1.42a6.309,6.309,0,0,0-2,4.736A6.308,6.308,0,0,0,9.08,10.891Z" transform="translate(891.588 1094.427)" fill="#f16d27" fill-rule="evenodd"/>
    <rect id="Rectangle_385" data-name="Rectangle 385" width="42" height="22" rx="1" transform="translate(831 1090)" fill="#fff" stroke="#eee" stroke-width="1"/>
    <path id="Path_478" data-name="Path 478" d="M13.925,13.929l1.54-9.462h2.464l-1.541,9.462H13.924M25.328,4.7a6.15,6.15,0,0,0-2.209-.4c-2.435,0-4.151,1.283-4.164,3.122-.016,1.36,1.224,2.119,2.158,2.572.96.463,1.283.759,1.279,1.173-.007.635-.767.925-1.475.925a4.983,4.983,0,0,1-2.322-.5l-.317-.151-.344,2.117a7.488,7.488,0,0,0,2.746.505c2.589,0,4.271-1.269,4.291-3.232.009-1.078-.648-1.9-2.07-2.572-.861-.438-1.389-.729-1.384-1.173,0-.393.447-.814,1.411-.814a4.36,4.36,0,0,1,1.844.364l.222.107.333-2.05m3.282,5.875c.2-.544.982-2.646.982-2.646-.015.026.2-.548.327-.9l.167.816.57,2.732Zm3.04-6.1h-1.9a1.22,1.22,0,0,0-1.291.784l-3.66,8.672h2.589s.423-1.167.519-1.423l3.156.005c.073.331.3,1.418.3,1.418h2.288L31.65,4.478Zm-19.792,0L9.446,10.926,9.187,9.614A7.285,7.285,0,0,0,5.774,5.646L7.98,13.921h2.607l3.881-9.445H11.858" transform="translate(832.864 1091.389)" fill="#191975" fill-rule="evenodd"/>
    <path id="Path_479" data-name="Path 479" d="M7.835,4.428H3.861l-.033.2A8.244,8.244,0,0,1,9.815,9.574L8.951,5.227a1.034,1.034,0,0,0-1.116-.8" transform="translate(832.236 1091.43)" fill="#ec982d" fill-rule="evenodd"/>
  </g>
</svg>
